<svg width="80" height="59" viewBox="0 0 80 59" fill="none" xmlns="http://www.w3.org/2000/svg">
<path d="M5.09805 16.0443C4.43631 16.8956 0.903672 20.7533 0.0947548 27.9159C-0.322062 31.604 0.51269 39.4374 5.09805 44.9863C9.32389 50.1005 17.1457 53.0598 21.9812 52.7965C31.9515 52.2539 37.7543 48.4407 37.7543 48.4407C37.7543 48.4407 44.9499 44.0149 47.8512 37.2556C50.7524 30.4962 45.6832 26.5427 45.6832 26.5427C45.6832 26.5427 35.9137 21.4274 25.661 18.6482C15.7855 15.9695 5.42723 15.6227 5.09805 16.0443Z" fill="#FFC700"/>
<path d="M22.4128 44.8103C23.5292 44.469 23.7318 41.8949 22.8653 39.0609C21.9989 36.227 20.3916 34.2063 19.2752 34.5476C18.1589 34.8888 17.9563 37.4629 18.8227 40.2969C19.6891 43.1309 21.2965 45.1516 22.4128 44.8103Z" fill="#000B38"/>
<path d="M22.3582 44.6312C23.3756 44.3201 23.5225 41.8508 22.6863 39.1157C21.8502 36.3806 20.3475 34.4156 19.33 34.7266C18.3126 35.0377 18.1657 37.5071 19.0019 40.2421C19.8381 42.9772 21.3407 44.9423 22.3582 44.6312Z" stroke="#000B38"/>
<path d="M18.7842 36.8916L21.8498 37.6032C21.8498 37.6032 20.4267 35.0524 19.4953 35.0771C18.564 35.1019 18.7842 36.8916 18.7842 36.8916Z" fill="white"/>
<path d="M22.0239 41.9866C22.0385 43.3348 21.9947 43.597 22.2112 44.4246C22.2404 44.4392 23.1673 44.0842 23.0302 41.3455C23.0463 41.3616 22.2389 40.4935 22.0239 41.9866Z" fill="#FF7777"/>
<path d="M17.0581 6.2917L15.7773 5.87976C15.205 5.75849 14.6083 5.83782 14.0876 6.10445C13.2262 6.55086 5.09623 10.0899 3.11963 16.3073C3.15146 16.3391 19.6376 14.0229 45.7877 26.9348L44.0209 19.6006L42.206 13.4937L17.0581 6.2917Z" fill="#FF4216"/>
<path d="M45.2012 24.529C35.8197 17.6199 25.3112 15.1216 18.0909 14.1798C14.8587 13.7572 11.6008 13.5624 8.34121 13.5967C5.97288 13.6274 4.3266 13.7757 4.31274 13.7772L4.73966 13.1574C5.93132 13.0133 7.13076 12.9427 8.33111 12.9462C11.6216 12.9116 14.9104 13.1084 18.1733 13.5349C22.6987 14.1131 27.1517 15.1602 31.4605 16.6593C36.684 18.4944 40.7915 20.5133 44.9844 23.6014L45.2012 24.529Z" fill="white"/>
<path d="M43.6382 18.4835C35.3175 13.1844 26.0071 10.8127 19.5983 9.74421C16.7303 9.26517 13.8384 8.94139 10.9354 8.77427C9.51946 8.69937 9.49625 8.67389 9.48389 8.67427L10.3685 8.12413C10.5642 8.10071 10.7621 8.10071 10.9579 8.12413C13.8842 8.292 16.7993 8.6178 19.6905 9.10008C23.6911 9.75718 27.6326 10.734 31.4771 12.0212C36.1107 13.5873 39.6411 15.1565 43.3595 17.5263L43.6382 18.4835Z" fill="white"/>
<path d="M16.9685 6.27558L42.0899 13.506C44.4876 20.8925 46.3174 28.4514 47.5632 36.1168C48.2227 40.8281 48.6039 45.5743 48.7047 50.3305C48.7537 50.2814 67.5 31.6325 49.7637 0.331924C49.7637 0.331924 41.1439 -0.672492 32.945 0.813144C24.7461 2.29878 16.9685 6.27558 16.9685 6.27558Z" fill="#511168"/>
<path d="M7.54981 21.7263H8.34677C8.34677 21.7263 5.10659 31.2262 6.62406 31.4509C7.69887 31.604 12.9688 22.2045 12.9688 22.2045C12.9688 22.2045 8.72089 32.559 6.49 32.0489C3.35357 31.3456 7.54981 21.7263 7.54981 21.7263Z" fill="#000B38"/>
<path d="M14.7039 21.7263H15.5008C15.5008 21.7263 12.2606 31.2262 13.7781 31.4509C14.8529 31.604 20.1229 22.2045 20.1229 22.2045C20.1229 22.2045 15.8749 32.559 13.6441 32.0489C10.5076 31.3456 14.7039 21.7263 14.7039 21.7263Z" fill="#000B38"/>
<path d="M30.5987 26.8542H77.6957C77.9983 26.8542 78.2979 26.9138 78.5775 27.0296C78.8571 27.1453 79.1112 27.3151 79.3252 27.529C79.5391 27.743 79.7089 27.9971 79.8246 28.2767C79.9404 28.5563 80 28.8559 80 29.1585V41.6237C80 42.2349 79.7572 42.821 79.325 43.2531C78.8929 43.6852 78.3068 43.928 77.6957 43.928H30.5987C30.2961 43.9281 29.9964 43.8685 29.7169 43.7527C29.4373 43.6369 29.1832 43.4672 28.9692 43.2532C28.7553 43.0392 28.5855 42.7852 28.4697 42.5056C28.354 42.226 28.2944 41.9263 28.2944 41.6237V29.1585C28.2944 28.8559 28.354 28.5563 28.4697 28.2767C28.5855 27.9971 28.7553 27.743 28.9692 27.529C29.1832 27.3151 29.4373 27.1453 29.7169 27.0296C29.9964 26.9138 30.2961 26.8542 30.5987 26.8542Z" fill="#FF4216"/>
<path d="M33.4169 36.8635L32.6904 37.6731V40.0411H29.5146V30.4539H32.6904V33.9345L35.8414 30.4513H39.3617L35.5257 34.6685L39.555 40.0392H35.8152L33.4169 36.8635Z" fill="white"/>
<path d="M47.8287 38.3674H44.1837L43.5403 40.0392H40.2515L44.4458 30.4513H47.6216L51.8122 40.0392H48.4687L47.8287 38.3674ZM46.9344 36.0403L46.0045 33.6285L45.0746 36.0403H46.9344Z" fill="white"/>
<path d="M60.1695 38.3674H56.5245L55.8811 40.0392H52.5923L56.7867 30.4513H59.9624L64.1531 40.0392H60.8095L60.1695 38.3674ZM59.2752 36.0403L58.3453 33.6285L57.4155 36.0403H59.2752Z" fill="white"/>
<path d="M74.5379 40.0392L74.5075 35.6696L72.4242 39.1756H71.0011L68.9178 35.822V40.0392H65.9761V30.452H68.6328L71.7527 35.5587L74.797 30.4513H77.456L77.4814 40.0385L74.5379 40.0392Z" fill="white"/>
<path d="M35.2076 51.6798C34.2548 51.694 33.3129 51.4754 32.4636 51.0431C31.6736 50.6378 31.0121 50.0202 30.5537 49.2597C30.0867 48.4752 29.8475 47.5762 29.8628 46.6633C29.8479 45.7524 30.087 44.8553 30.5533 44.0726C31.0103 43.3109 31.6721 42.693 32.4633 42.2892C33.3125 41.8569 34.2544 41.6383 35.2072 41.6526C36.063 41.6384 36.912 41.8072 37.6973 42.1476C38.4104 42.4622 39.0325 42.9517 39.5061 43.5707L37.4636 45.3945C37.2281 45.0553 36.9156 44.7767 36.5517 44.5815C36.1879 44.3862 35.783 44.2798 35.3701 44.271C35.0677 44.2579 34.766 44.309 34.4848 44.4212C34.2037 44.5333 33.9495 44.7039 33.7392 44.9215C33.3131 45.3991 33.0921 46.0252 33.1243 46.6645C33.0912 47.3053 33.3122 47.9333 33.7392 48.4123C33.9494 48.6301 34.2035 48.8008 34.4847 48.913C34.7659 49.0251 35.0677 49.0762 35.3701 49.0628C35.783 49.0543 36.188 48.948 36.5519 48.7527C36.9158 48.5574 37.2283 48.2786 37.4636 47.9393L39.5065 49.7649C39.0332 50.3843 38.411 50.8739 37.6976 51.188C36.9121 51.5273 36.0631 51.6949 35.2076 51.6798Z" fill="#511168"/>
<path d="M51.7947 41.8732V51.4603H48.5628V47.9239H45.5751V51.4603H42.3435V41.8732H45.5751V45.2672H48.5628V41.8732H51.7947Z" fill="#511168"/>
<path d="M60.2849 51.6797C59.3183 51.6951 58.3625 51.4749 57.5001 51.0382C56.7045 50.6313 56.0365 50.013 55.5696 49.2511C55.1008 48.4708 54.8597 47.575 54.8734 46.6648C54.8595 45.7563 55.1007 44.8621 55.5696 44.0838C56.036 43.3223 56.7044 42.705 57.5005 42.3004C58.3621 41.8615 59.318 41.64 60.2849 41.6552C61.2502 41.6398 62.2046 41.8613 63.0644 42.3004C63.8615 42.7035 64.5303 43.3212 64.9953 44.0838C65.4668 44.8612 65.7098 45.7557 65.6964 46.6648C65.7097 47.5756 65.4667 48.4718 64.9953 49.2511C64.5295 50.0142 63.8609 50.6329 63.064 51.0382C62.2036 51.4749 61.2496 51.6951 60.2849 51.6797ZM60.2849 49.0631C60.6673 49.0684 61.0436 48.9663 61.3709 48.7684C61.7004 48.5674 61.9678 48.279 62.1431 47.9351C62.3435 47.5423 62.443 47.1057 62.4326 46.6648C62.4427 46.2272 62.3432 45.794 62.1431 45.4047C61.9683 45.0591 61.701 44.7688 61.3709 44.5661C61.0434 44.3688 60.6673 44.2667 60.2849 44.2714C59.9005 44.2667 59.5223 44.3687 59.1925 44.5661C58.8636 44.7702 58.5966 45.0601 58.4202 45.4047C58.223 45.7949 58.1252 46.2277 58.1356 46.6648C58.125 47.1052 58.2227 47.5414 58.4202 47.9351C58.5971 48.2779 58.8641 48.566 59.1925 48.7684C59.5221 48.9664 59.9004 49.0685 60.2849 49.0631Z" fill="#511168"/>
<path d="M72.8842 49.0527H72.0101V51.4611H68.7786V41.8739H73.3924C74.1868 41.8563 74.976 42.0051 75.7094 42.3109C76.3292 42.5717 76.8579 43.0102 77.2287 43.5711C77.5917 44.145 77.7773 44.8131 77.7624 45.4919C77.7768 46.1216 77.6149 46.7428 77.295 47.2854C76.9721 47.8104 76.5069 48.2332 75.9536 48.5048L77.9706 51.4633H74.5151L72.8842 49.0527ZM74.5061 45.4908C74.5152 45.3362 74.4903 45.1816 74.4332 45.0376C74.3761 44.8937 74.2883 44.764 74.1758 44.6575C73.8945 44.4418 73.5437 44.3369 73.1902 44.3628H72.0101V46.6139H73.189C73.5427 46.6404 73.8937 46.5355 74.1747 46.3192C74.2872 46.2138 74.3753 46.085 74.4325 45.9419C74.4898 45.7987 74.5149 45.6447 74.5061 45.4908Z" fill="#511168"/>
<path d="M20.5359 56.4238H20.2363C20.1453 56.594 20.0111 56.7373 19.8472 56.8391C19.6845 56.9428 19.4952 56.9971 19.3023 56.9953C19.1615 56.9975 19.0219 56.9697 18.8927 56.9136C18.7636 56.8575 18.6478 56.7746 18.5533 56.6702C18.4541 56.5707 18.3762 56.4521 18.3242 56.3215C18.2723 56.191 18.2474 56.0512 18.2511 55.9108C18.2477 55.7698 18.2726 55.6297 18.3242 55.4986C18.3759 55.3674 18.4533 55.2479 18.5518 55.1472C18.6481 55.0483 18.7625 54.969 18.8888 54.9135C19.0053 54.8556 19.1333 54.8247 19.2633 54.8232C19.372 54.8219 19.4802 54.8364 19.5847 54.8663C19.7219 54.9049 19.8499 54.9708 19.961 55.0601C20.072 55.1495 20.1639 55.2603 20.2311 55.3861H20.5307C20.4318 55.1394 20.2625 54.9274 20.0438 54.7764C19.8264 54.622 19.566 54.5397 19.2993 54.5412C19.1229 54.5392 18.9481 54.5744 18.7863 54.6444C18.6244 54.7144 18.479 54.8177 18.3597 54.9475C18.2381 55.0739 18.1424 55.2227 18.0777 55.3857C18.0083 55.5517 17.9738 55.7301 17.9762 55.91C17.972 56.0876 18.0038 56.2642 18.0697 56.4292C18.1356 56.5941 18.2343 56.744 18.3597 56.8698C18.4786 57.0011 18.6242 57.1054 18.7868 57.1757C18.9494 57.246 19.1252 57.2806 19.3023 57.2773C19.5702 57.2777 19.8317 57.1956 20.0513 57.0421C20.2715 56.8896 20.4404 56.6741 20.5359 56.4238Z" fill="white"/>
<path d="M22.3557 56.3688C22.3567 56.4504 22.341 56.5314 22.3096 56.6067C22.2781 56.6821 22.2317 56.7502 22.1729 56.8069C22.1157 56.8665 22.0468 56.9137 21.9705 56.9454C21.8942 56.9771 21.8122 56.9927 21.7295 56.9912C21.6471 56.993 21.5652 56.9775 21.4891 56.9458C21.413 56.9141 21.3444 56.8668 21.2876 56.8069C21.228 56.7508 21.1808 56.6829 21.149 56.6074C21.1173 56.5319 21.1017 56.4506 21.1034 56.3688C21.1021 56.2864 21.1177 56.2046 21.1494 56.1286C21.1812 56.0526 21.2282 55.9839 21.2876 55.9268C21.3449 55.8677 21.4136 55.8209 21.4896 55.7892C21.5656 55.7575 21.6472 55.7417 21.7295 55.7426C21.812 55.7419 21.8939 55.7578 21.97 55.7895C22.0462 55.8211 22.1153 55.8679 22.1729 55.9268C22.2315 55.9844 22.2779 56.0533 22.3093 56.1292C22.3407 56.2051 22.3565 56.2866 22.3557 56.3688ZM22.6302 56.3688C22.6314 56.2506 22.6084 56.1334 22.5627 56.0245C22.5169 55.9155 22.4494 55.817 22.3643 55.7351C22.2821 55.6494 22.1832 55.5815 22.0737 55.5357C21.9642 55.4898 21.8464 55.4669 21.7277 55.4685C21.609 55.467 21.4912 55.49 21.3817 55.5358C21.2722 55.5817 21.1733 55.6495 21.091 55.7351C21.0061 55.8171 20.939 55.9157 20.8939 56.0248C20.8488 56.1339 20.8267 56.2511 20.8289 56.3691C20.826 56.4872 20.8478 56.6047 20.8929 56.7139C20.9381 56.823 21.0055 56.9216 21.091 57.0032C21.1737 57.0878 21.2729 57.1548 21.3823 57.1998C21.4918 57.2449 21.6093 57.2672 21.7277 57.2653C21.846 57.2671 21.9635 57.2448 22.073 57.1998C22.1824 57.1547 22.2816 57.0878 22.3643 57.0032C22.4501 56.9215 22.5179 56.823 22.5636 56.7138C22.6093 56.6046 22.6323 56.4871 22.6302 56.3688Z" fill="white"/>
<path d="M24.2904 57.2376H24.5649V56.1617C24.572 55.9875 24.516 55.8167 24.4072 55.6805C24.3548 55.6186 24.2894 55.5691 24.2155 55.5355C24.1216 55.4958 24.0201 55.4767 23.9181 55.4797C23.8024 55.4788 23.6891 55.5129 23.5931 55.5775C23.5026 55.6374 23.4278 55.718 23.3748 55.8127V55.5153H23.0991V57.238H23.3736V56.5175C23.3641 56.336 23.4059 56.1554 23.4942 55.9966C23.5416 55.9254 23.6033 55.8649 23.6755 55.819C23.7631 55.7727 23.8614 55.7503 23.9605 55.7539C24.0092 55.7503 24.0581 55.7597 24.102 55.7812C24.146 55.8026 24.1834 55.8353 24.2106 55.876C24.2642 55.9615 24.2915 56.0608 24.2893 56.1617L24.2904 57.2376Z" fill="white"/>
<path d="M26.2826 57.2376H26.5571V56.1617C26.5642 55.9875 26.5082 55.8167 26.3994 55.6805C26.347 55.6186 26.2815 55.5691 26.2077 55.5355C26.1137 55.4958 26.0123 55.4767 25.9103 55.4797C25.7946 55.4788 25.6813 55.5129 25.5853 55.5775C25.4948 55.6374 25.42 55.718 25.3669 55.8127V55.5153H25.0913V57.238H25.3658V56.5175C25.3562 56.336 25.398 56.1554 25.4864 55.9966C25.5338 55.9254 25.5955 55.8649 25.6677 55.819C25.7553 55.7727 25.8536 55.7503 25.9527 55.7539C26.0014 55.7503 26.0503 55.7597 26.0942 55.7812C26.1381 55.8026 26.1756 55.8353 26.2028 55.876C26.2563 55.9615 26.2837 56.0608 26.2815 56.1617L26.2826 57.2376Z" fill="white"/>
<path d="M28.7675 56.3373C28.7669 56.2214 28.7421 56.1068 28.6949 56.001C28.6476 55.8951 28.5789 55.8002 28.493 55.7224C28.3262 55.5581 28.101 55.4667 27.8668 55.4684C27.7481 55.467 27.6304 55.4899 27.5209 55.5358C27.4114 55.5817 27.3124 55.6495 27.2302 55.7351C27.1453 55.8171 27.0782 55.9157 27.0331 56.0248C26.988 56.1339 26.9658 56.2511 26.968 56.3691C26.9651 56.4872 26.9869 56.6047 27.0321 56.7138C27.0772 56.823 27.1447 56.9216 27.2302 57.0031C27.3114 57.0845 27.4076 57.1494 27.5133 57.1945C27.6375 57.2446 27.7707 57.2689 27.9047 57.2657C28.0649 57.2627 28.2209 57.2137 28.3541 57.1245C28.5015 57.0296 28.6175 56.893 28.687 56.732H28.3746C28.3148 56.8127 28.237 56.8783 28.1473 56.9237C28.0603 56.969 27.9634 56.9921 27.8653 56.9912C27.7193 56.9925 27.5776 56.9411 27.4665 56.8462C27.3508 56.7568 27.274 56.6264 27.2519 56.4818H28.7675V56.3373ZM28.478 56.247H27.2571C27.2731 56.1765 27.3006 56.1091 27.3384 56.0474C27.3904 55.9533 27.4671 55.8752 27.5602 55.8215C27.6533 55.7678 27.7593 55.7405 27.8668 55.7426C28.0088 55.7415 28.1464 55.7916 28.2544 55.8838C28.3673 55.9766 28.446 56.1044 28.478 56.247Z" fill="white"/>
<path d="M30.8277 56.134C30.7752 55.9482 30.6654 55.7837 30.5139 55.664C30.362 55.5449 30.1747 55.4801 29.9817 55.4797C29.8645 55.4777 29.7481 55.5004 29.6402 55.5464C29.5324 55.5923 29.4354 55.6605 29.3555 55.7464C29.2729 55.8288 29.2078 55.9271 29.1641 56.0354C29.1204 56.1436 29.099 56.2596 29.1013 56.3763C29.0988 56.4936 29.12 56.6102 29.1637 56.7191C29.2073 56.8281 29.2724 56.9271 29.3552 57.0103C29.4334 57.0937 29.5282 57.1599 29.6334 57.2047C29.7355 57.2511 29.8463 57.2753 29.9585 57.2758C30.0581 57.2788 30.1575 57.2643 30.2521 57.2328C30.3828 57.1895 30.5015 57.1162 30.5985 57.0186C30.6956 56.921 30.7683 56.8019 30.8108 56.671H30.5023C30.4522 56.7676 30.3766 56.8486 30.2836 56.9051C30.1941 56.9621 30.0901 56.9921 29.984 56.9916C29.9041 56.9932 29.8248 56.9779 29.7513 56.9468C29.6777 56.9157 29.6115 56.8695 29.557 56.8111C29.5006 56.7539 29.4563 56.6859 29.4267 56.6112C29.3971 56.5365 29.3829 56.4566 29.3848 56.3763C29.3838 56.2973 29.3985 56.219 29.4279 56.1457C29.4573 56.0724 29.501 56.0057 29.5563 55.9494C29.6112 55.8932 29.6762 55.8479 29.748 55.816C29.8311 55.7816 29.9203 55.7643 30.0102 55.7651C30.1178 55.7688 30.222 55.8041 30.3098 55.8666C30.4057 55.9337 30.4812 56.026 30.5281 56.1332L30.8277 56.134Z" fill="white"/>
<path d="M31.0425 55.7692H31.4732V57.238H31.7462V55.7692H32.1731V55.5153H31.7462V54.8461H31.4732V55.5157H31.0425V55.7692Z" fill="white"/>
<path d="M32.823 54.9206C32.7887 54.8885 32.7437 54.8704 32.6968 54.87C32.6743 54.8699 32.652 54.8744 32.6313 54.8831C32.6105 54.8919 32.5918 54.9047 32.5762 54.9209C32.5595 54.937 32.5464 54.9563 32.5376 54.9777C32.5289 54.9991 32.5247 55.0221 32.5253 55.0453C32.5244 55.0681 32.5285 55.0908 32.5373 55.1119C32.5461 55.133 32.5594 55.1519 32.5762 55.1673C32.5913 55.1842 32.6099 55.1975 32.6308 55.2063C32.6516 55.2152 32.6742 55.2192 32.6968 55.2183C32.7201 55.2188 32.7433 55.2146 32.7649 55.2058C32.7866 55.197 32.8062 55.184 32.8226 55.1673C32.8387 55.1514 32.8515 55.1324 32.8603 55.1114C32.869 55.0904 32.8735 55.068 32.8735 55.0453C32.8732 54.9988 32.8551 54.9542 32.823 54.9206ZM32.8383 57.2376V55.5149H32.5653V57.2376H32.8383Z" fill="white"/>
<path d="M34.6322 57.2376H34.9067V56.1617C34.9138 55.9875 34.8578 55.8167 34.749 55.6805C34.6966 55.6186 34.6312 55.5691 34.5573 55.5355C34.4634 55.4958 34.3619 55.4767 34.2599 55.4797C34.1442 55.4788 34.0309 55.5129 33.9349 55.5775C33.8444 55.6374 33.7696 55.718 33.7165 55.8127V55.5153H33.4409V57.238H33.7154V56.5175C33.7059 56.336 33.7477 56.1554 33.836 55.9966C33.8834 55.9254 33.9451 55.8649 34.0173 55.819C34.1049 55.7727 34.2032 55.7503 34.3023 55.7539C34.351 55.7503 34.3999 55.7597 34.4438 55.7812C34.4878 55.8026 34.5252 55.8353 34.5524 55.876C34.606 55.9615 34.6333 56.0608 34.6311 56.1617L34.6322 57.2376Z" fill="white"/>
<mask id="mask0_2516_10" style="mask-type:luminance" maskUnits="userSpaceOnUse" x="35" y="55" width="3" height="4">
<path d="M35.229 55.4389H37.1801V58.0405H35.229V55.4389Z" fill="white"/>
</mask>
<g mask="url(#mask0_2516_10)">
<path d="M36.8278 56.3766C36.8292 56.4577 36.8143 56.5382 36.784 56.6135C36.7537 56.6887 36.7086 56.7572 36.6514 56.8147C36.5972 56.8749 36.5307 56.9228 36.4564 56.9551C36.3821 56.9874 36.3018 57.0034 36.2208 57.002C36.14 57.0032 36.0599 56.9871 35.9859 56.9548C35.9118 56.9225 35.8456 56.8748 35.7916 56.8147C35.734 56.7574 35.6887 56.6891 35.6584 56.6137C35.6281 56.5384 35.6134 56.4577 35.6152 56.3766C35.6136 56.2129 35.677 56.0553 35.7916 55.9384C35.8456 55.8783 35.9118 55.8306 35.9859 55.7983C36.0599 55.766 36.14 55.7499 36.2208 55.7511C36.3018 55.7497 36.3821 55.7657 36.4564 55.798C36.5307 55.8303 36.5972 55.8782 36.6514 55.9384C36.7654 56.0557 36.8287 56.213 36.8278 56.3766ZM35.6069 57.4727H35.325C35.3544 57.6568 35.4438 57.8261 35.5792 57.9543C35.6603 58.0393 35.7582 58.1065 35.8666 58.1516C35.9751 58.1968 36.0917 58.2188 36.2091 58.2165C36.3266 58.2183 36.4431 58.196 36.5515 58.1509C36.6599 58.1058 36.7579 58.0389 36.8394 57.9543C36.9237 57.8727 36.9904 57.7747 37.0355 57.6664C37.0806 57.5581 37.1031 57.4417 37.1016 57.3244V55.5156H36.8278V55.8051C36.8111 55.7877 36.7954 55.7694 36.7806 55.7504C36.7057 55.6651 36.6135 55.5965 36.5103 55.5492C36.4071 55.5019 36.295 55.4769 36.1814 55.4759C36.0663 55.4746 35.9524 55.4985 35.8475 55.5459C35.7426 55.5933 35.6494 55.6631 35.5744 55.7504C35.4211 55.9227 35.3376 56.146 35.3403 56.3766C35.3365 56.6075 35.4206 56.8313 35.5755 57.0027C35.65 57.0907 35.7431 57.1609 35.8481 57.2084C35.9531 57.2559 36.0673 57.2794 36.1826 57.2772C36.2965 57.2787 36.4094 57.2548 36.513 57.2074C36.6166 57.1599 36.7084 57.09 36.7818 57.0027C36.7971 56.9874 36.8136 56.9671 36.8289 56.9518V57.324C36.8298 57.4059 36.8138 57.4871 36.7819 57.5626C36.75 57.638 36.7029 57.7061 36.6436 57.7626C36.5873 57.8208 36.5198 57.8668 36.4451 57.8979C36.3703 57.9289 36.29 57.9443 36.2091 57.9431C36.1277 57.9444 36.0468 57.929 35.9715 57.898C35.8961 57.8669 35.8279 57.8209 35.771 57.7626C35.6885 57.6845 35.6314 57.5836 35.6069 57.4727Z" fill="white"/>
</g>
<path d="M38.531 54.8232H39.1763V57.2309H39.4515V54.8232H40.096V54.5678H38.531V54.8232Z" fill="white"/>
<path d="M41.8385 56.3766C41.8396 56.4577 41.8245 56.5382 41.7943 56.6134C41.764 56.6886 41.7191 56.7571 41.6621 56.8148C41.6079 56.875 41.5414 56.9229 41.4671 56.9552C41.3928 56.9875 41.3124 57.0035 41.2314 57.0021C41.1498 57.0039 41.0688 56.9881 40.9938 56.9558C40.9189 56.9235 40.8517 56.8754 40.797 56.8148C40.7406 56.7569 40.6963 56.6883 40.6666 56.6131C40.637 56.5379 40.6226 56.4575 40.6244 56.3766C40.6227 56.2137 40.6846 56.0565 40.797 55.9385C40.8517 55.8779 40.9189 55.8298 40.9938 55.7975C41.0688 55.7652 41.1498 55.7494 41.2314 55.7512C41.3124 55.7498 41.3928 55.7658 41.4671 55.7981C41.5414 55.8304 41.6079 55.8783 41.6621 55.9385C41.7756 56.0561 41.8388 56.2132 41.8385 56.3766ZM42.1115 57.238V55.5153H41.8385V55.8127C41.822 55.7898 41.8029 55.7696 41.7876 55.7505C41.7135 55.6641 41.6216 55.5948 41.5181 55.5474C41.4147 55.5 41.3022 55.4757 41.1884 55.476C41.0741 55.4751 40.9609 55.4992 40.8569 55.5466C40.7529 55.594 40.6605 55.6636 40.5862 55.7505C40.432 55.9223 40.348 56.1458 40.351 56.3766C40.3465 56.6077 40.4305 56.8317 40.5858 57.0028C40.6595 57.0904 40.7518 57.1604 40.856 57.2079C40.9601 57.2554 41.0736 57.2791 41.188 57.2773C41.3019 57.2785 41.4147 57.2545 41.5183 57.207C41.6219 57.1596 41.7137 57.0898 41.7872 57.0028C41.8059 56.9844 41.823 56.9644 41.8385 56.9433V57.2369L42.1115 57.238Z" fill="white"/>
<path d="M42.9737 57.238V54.3023H42.6985V57.238H42.9737Z" fill="white"/>
<path d="M45.2431 56.3373C45.2424 56.2214 45.2177 56.1068 45.1705 56.001C45.1232 55.8951 45.0545 55.8002 44.9686 55.7224C44.8018 55.5581 44.5765 55.4667 44.3424 55.4684C44.2237 55.467 44.106 55.4899 43.9965 55.5358C43.887 55.5817 43.788 55.6495 43.7058 55.7351C43.6209 55.8171 43.5538 55.9157 43.5087 56.0248C43.4635 56.1339 43.4414 56.2511 43.4436 56.3691C43.4407 56.4872 43.4625 56.6047 43.5077 56.7138C43.5528 56.823 43.6203 56.9216 43.7058 57.0031C43.787 57.0845 43.8831 57.1494 43.9889 57.1945C44.1131 57.2446 44.2463 57.2689 44.3802 57.2657C44.5405 57.2627 44.6965 57.2137 44.8296 57.1245C44.9771 57.0296 45.093 56.893 45.1626 56.732H44.8502C44.7904 56.8127 44.7125 56.8783 44.6229 56.9237C44.5358 56.969 44.439 56.9921 44.3409 56.9912C44.1948 56.9925 44.0532 56.9411 43.9421 56.8462C43.8264 56.7568 43.7496 56.6264 43.7275 56.4818H45.2431V56.3373ZM44.9536 56.247H43.7327C43.7487 56.1765 43.7762 56.1091 43.814 56.0474C43.866 55.9533 43.9427 55.8752 44.0358 55.8215C44.1289 55.7678 44.2349 55.7405 44.3424 55.7426C44.4844 55.7415 44.622 55.7916 44.73 55.8838C44.8429 55.9766 44.9216 56.1044 44.9536 56.247Z" fill="white"/>
<path d="M46.8842 57.2376H47.1587V56.1617C47.1658 55.9875 47.1098 55.8167 47.001 55.6805C46.9486 55.6186 46.8831 55.5691 46.8093 55.5355C46.7153 55.4958 46.6139 55.4767 46.5119 55.4797C46.3962 55.4788 46.2829 55.5129 46.1868 55.5775C46.0964 55.6374 46.0215 55.718 45.9685 55.8127V55.5153H45.6929V57.238H45.9674V56.5175C45.9578 56.336 45.9996 56.1554 46.088 55.9966C46.1354 55.9254 46.1971 55.8649 46.2692 55.819C46.3569 55.7727 46.4552 55.7503 46.5542 55.7539C46.603 55.7503 46.6518 55.7597 46.6958 55.7812C46.7397 55.8026 46.7772 55.8353 46.8044 55.876C46.8579 55.9615 46.8852 56.0608 46.883 56.1617L46.8842 57.2376Z" fill="white"/>
<path d="M47.4714 55.7692H47.9021V57.238H48.1751V55.7692H48.602V55.5153H48.1751V54.8461H47.9021V55.5157H47.4714V55.7692Z" fill="white"/>
<path d="M51.7141 57.4578L52.532 55.5157H52.2272L51.7104 56.8429L51.1546 55.4254L50.5989 56.8429L50.0817 55.5157H49.7769L50.6008 57.4578L51.1546 56.0681L51.7141 57.4578Z" fill="white"/>
<path d="M53.1428 54.9206C53.1086 54.8885 53.0635 54.8704 53.0166 54.87C52.9941 54.8699 52.9718 54.8744 52.9511 54.8831C52.9304 54.8919 52.9116 54.9047 52.896 54.9209C52.8794 54.937 52.8662 54.9563 52.8575 54.9777C52.8487 54.9991 52.8445 55.0221 52.8451 55.0453C52.8442 55.0681 52.8483 55.0908 52.8571 55.1119C52.8659 55.133 52.8792 55.1519 52.896 55.1673C52.9111 55.1842 52.9297 55.1975 52.9506 55.2063C52.9714 55.2152 52.994 55.2192 53.0166 55.2183C53.0399 55.2188 53.0631 55.2146 53.0848 55.2058C53.1064 55.197 53.126 55.184 53.1424 55.1673C53.1586 55.1514 53.1714 55.1324 53.1801 55.1114C53.1889 55.0904 53.1934 55.068 53.1934 55.0453C53.193 54.9988 53.1749 54.9542 53.1428 54.9206ZM53.1582 57.2376V55.5149H52.8852V57.2376H53.1582Z" fill="white"/>
<path d="M53.5466 55.7692H53.9773V57.238H54.2503V55.7692H54.6772V55.5153H54.2503V54.8461H53.9773V55.5157H53.5466V55.7692Z" fill="white"/>
<path d="M55.3236 57.238V56.5175C55.3113 56.3284 55.3531 56.1398 55.4442 55.9737C55.4895 55.9053 55.5517 55.8497 55.6247 55.8123C55.7137 55.7704 55.8114 55.7505 55.9097 55.7542C55.9585 55.7507 56.0073 55.7601 56.0512 55.7815C56.0952 55.803 56.1327 55.8357 56.1599 55.8763C56.2134 55.9619 56.2407 56.0612 56.2385 56.1621V57.238H56.513V56.1621C56.5202 55.9878 56.4642 55.8168 56.3553 55.6805C56.3029 55.6186 56.2375 55.5691 56.1636 55.5355C56.0697 55.4957 55.9682 55.4767 55.8662 55.4797C55.7505 55.4788 55.6372 55.5129 55.5412 55.5775C55.4507 55.6374 55.3759 55.718 55.3228 55.8127V54.3023H55.0483V57.238H55.3236Z" fill="white"/>
<path d="M60.4437 55.8988C60.446 56.0432 60.4186 56.1865 60.3633 56.3198C60.308 56.4531 60.2258 56.5737 60.122 56.674C60.0218 56.7778 59.9013 56.8599 59.768 56.9152C59.6347 56.9705 59.4915 56.9978 59.3472 56.9953C59.2034 56.9981 59.0606 56.971 58.9279 56.9157C58.7951 56.8604 58.6753 56.7781 58.5761 56.674C58.4719 56.574 58.3895 56.4535 58.3342 56.3201C58.2789 56.1867 58.2518 56.0432 58.2548 55.8988C58.2531 55.7552 58.2808 55.6127 58.336 55.4802C58.3913 55.3476 58.4729 55.2277 58.5761 55.1277C58.676 55.0246 58.796 54.9429 58.9285 54.8877C59.0611 54.8324 59.2036 54.8048 59.3472 54.8064C59.4913 54.8051 59.6342 54.8329 59.7673 54.8881C59.9005 54.9434 60.0211 55.0248 60.122 55.1277C60.2248 55.228 60.3062 55.348 60.3615 55.4805C60.4168 55.613 60.4447 55.7553 60.4437 55.8988ZM60.7182 55.8988C60.7172 55.7156 60.6789 55.5346 60.6059 55.3666C60.5369 55.2043 60.4372 55.0567 60.3123 54.9322C60.187 54.8092 60.0396 54.711 59.8778 54.6427C59.7097 54.5706 59.5286 54.5334 59.3457 54.5334C59.1627 54.533 58.9815 54.5702 58.8135 54.6427C58.6521 54.7116 58.5048 54.8098 58.3791 54.9322C58.2541 55.0567 58.1544 55.2043 58.0855 55.3666C58.0152 55.5352 57.9799 55.7162 57.9818 55.8988C57.9801 56.0816 58.016 56.2627 58.0874 56.431C58.1547 56.5953 58.2545 56.7444 58.381 56.8691C58.5055 56.9941 58.653 57.0938 58.8154 57.1627C58.9836 57.2345 59.1647 57.2708 59.3476 57.2695C59.5305 57.2698 59.7116 57.2329 59.8797 57.1609C60.0425 57.0926 60.1901 56.9928 60.3141 56.8673C60.4406 56.7425 60.5404 56.5935 60.6077 56.4291C60.6803 56.2617 60.7181 56.0812 60.7182 55.8988Z" fill="white"/>
<mask id="mask1_2516_10" style="mask-type:luminance" maskUnits="userSpaceOnUse" x="60" y="55" width="4" height="4">
<path d="M60.9192 55.4389H63.1954V58.0405H60.9192V55.4389Z" fill="white"/>
</mask>
<g mask="url(#mask1_2516_10)">
<path d="M61.461 58.2165V56.9432C61.4732 56.9653 61.4892 56.9851 61.5082 57.0016C61.582 57.0892 61.6743 57.1592 61.7784 57.2067C61.8826 57.2542 61.996 57.2779 62.1104 57.2762C62.2244 57.2773 62.3371 57.2533 62.4407 57.2059C62.5443 57.1584 62.6361 57.0887 62.7096 57.0016C62.8656 56.8307 62.951 56.6069 62.9486 56.3755C62.9496 56.1443 62.8644 55.9211 62.7096 55.7493C62.6356 55.6629 62.5436 55.5937 62.4402 55.5463C62.3367 55.4989 62.2242 55.4745 62.1104 55.4748C61.9961 55.4739 61.883 55.498 61.779 55.5454C61.6749 55.5929 61.5825 55.6624 61.5082 55.7493C61.49 55.768 61.4742 55.7889 61.461 55.8115V55.5141H61.1858V58.2165H61.461ZM62.674 56.3766C62.6753 56.4578 62.6602 56.5384 62.6297 56.6137C62.5992 56.6889 62.5539 56.7573 62.4965 56.8148C62.4423 56.875 62.3758 56.9228 62.3015 56.9551C62.2272 56.9875 62.1469 57.0034 62.0659 57.002C61.9843 57.0036 61.9033 56.9877 61.8284 56.9554C61.7535 56.9231 61.6863 56.8751 61.6314 56.8148C61.5752 56.7568 61.531 56.6882 61.5016 56.613C61.4721 56.5377 61.458 56.4574 61.4599 56.3766C61.4578 56.2138 61.5193 56.0566 61.6314 55.9384C61.6863 55.8781 61.7535 55.8301 61.8284 55.7978C61.9033 55.7655 61.9843 55.7496 62.0659 55.7512C62.1469 55.7498 62.2272 55.7658 62.3015 55.7981C62.3758 55.8304 62.4423 55.8782 62.4965 55.9384C62.6109 56.0556 62.6746 56.2129 62.674 56.3766Z" fill="white"/>
</g>
<mask id="mask2_2516_10" style="mask-type:luminance" maskUnits="userSpaceOnUse" x="63" y="55" width="3" height="4">
<path d="M63.1958 55.4389H65.472V58.0405H63.1958V55.4389Z" fill="white"/>
</mask>
<g mask="url(#mask2_2516_10)">
<path d="M63.693 58.2165V56.9432C63.7052 56.9653 63.7211 56.9851 63.7402 57.0016C63.8139 57.0892 63.9062 57.1592 64.0104 57.2067C64.1145 57.2542 64.2279 57.2779 64.3424 57.2762C64.4563 57.2773 64.5691 57.2533 64.6726 57.2059C64.7762 57.1584 64.868 57.0887 64.9416 57.0016C65.0975 56.8307 65.1829 56.6069 65.1805 56.3755C65.1815 56.1443 65.0963 55.9211 64.9416 55.7493C64.8675 55.6629 64.7756 55.5937 64.6721 55.5463C64.5687 55.4989 64.4562 55.4745 64.3424 55.4748C64.228 55.4739 64.1149 55.498 64.0109 55.5454C63.9069 55.5929 63.8145 55.6624 63.7402 55.7493C63.722 55.768 63.7061 55.7889 63.693 55.8115V55.5141H63.4177V58.2165H63.693ZM64.906 56.3766C64.9072 56.4578 64.8921 56.5384 64.8616 56.6137C64.8311 56.6889 64.7859 56.7573 64.7285 56.8148C64.6743 56.875 64.6078 56.9228 64.5335 56.9551C64.4592 56.9875 64.3788 57.0034 64.2978 57.002C64.2162 57.0036 64.1353 56.9877 64.0603 56.9554C63.9854 56.9231 63.9183 56.8751 63.8634 56.8148C63.8071 56.7568 63.7629 56.6882 63.7335 56.613C63.704 56.5377 63.6899 56.4574 63.6919 56.3766C63.6897 56.2138 63.7513 56.0566 63.8634 55.9384C63.9183 55.8781 63.9854 55.8301 64.0603 55.7978C64.1353 55.7655 64.2162 55.7496 64.2978 55.7512C64.3788 55.7498 64.4592 55.7658 64.5335 55.7981C64.6078 55.8304 64.6743 55.8782 64.7285 55.9384C64.8428 56.0556 64.9066 56.2129 64.906 56.3766Z" fill="white"/>
</g>
<path d="M67.0581 56.3688C67.0591 56.4504 67.0434 56.5314 67.012 56.6067C66.9805 56.6821 66.934 56.7502 66.8753 56.8069C66.8181 56.8665 66.7492 56.9137 66.6729 56.9454C66.5966 56.9771 66.5146 56.9927 66.4319 56.9912C66.3495 56.993 66.2676 56.9775 66.1915 56.9458C66.1154 56.9141 66.0468 56.8668 65.99 56.8069C65.9304 56.7508 65.8832 56.6829 65.8514 56.6074C65.8197 56.5319 65.8041 56.4506 65.8058 56.3688C65.8045 56.2864 65.8201 56.2046 65.8518 56.1286C65.8835 56.0526 65.9306 55.9839 65.99 55.9268C66.0473 55.8677 66.116 55.8209 66.192 55.7892C66.268 55.7575 66.3496 55.7417 66.4319 55.7426C66.5144 55.7419 66.5962 55.7578 66.6724 55.7895C66.7486 55.8211 66.8176 55.8679 66.8753 55.9268C66.9339 55.9844 66.9803 56.0533 67.0117 56.1292C67.0431 56.2051 67.0589 56.2866 67.0581 56.3688ZM67.3326 56.3688C67.3338 56.2506 67.3108 56.1334 67.2651 56.0245C67.2193 55.9155 67.1518 55.817 67.0667 55.7351C66.9845 55.6494 66.8856 55.5815 66.7761 55.5357C66.6666 55.4898 66.5488 55.4669 66.4301 55.4685C66.3114 55.467 66.1936 55.49 66.0841 55.5358C65.9746 55.5817 65.8757 55.6495 65.7934 55.7351C65.7085 55.8171 65.6414 55.9157 65.5963 56.0248C65.5512 56.1339 65.5291 56.2511 65.5313 56.3691C65.5283 56.4872 65.5502 56.6047 65.5953 56.7139C65.6405 56.823 65.7079 56.9216 65.7934 57.0032C65.8761 57.0878 65.9753 57.1548 66.0847 57.1998C66.1942 57.2449 66.3117 57.2672 66.4301 57.2653C66.5484 57.2671 66.6659 57.2448 66.7754 57.1998C66.8848 57.1547 66.984 57.0878 67.0667 57.0032C67.1525 56.9215 67.2203 56.823 67.266 56.7138C67.3117 56.6046 67.3347 56.4871 67.3326 56.3688Z" fill="white"/>
<path d="M68.688 55.8721V55.5153C68.6333 55.4923 68.5746 55.4802 68.5153 55.4797C68.4193 55.481 68.3261 55.5129 68.2494 55.5706C68.1726 55.6284 68.1163 55.7091 68.0884 55.801L68.0768 55.8721V55.5153H67.8015V57.2379H68.076V56.3766C68.0738 56.2431 68.1084 56.1116 68.176 55.9965C68.2066 55.9385 68.2489 55.8874 68.3003 55.8467C68.3531 55.8061 68.418 55.7842 68.4846 55.7845C68.5607 55.7885 68.6328 55.8196 68.688 55.8721Z" fill="white"/>
<path d="M68.8052 55.7692H69.2358V57.238H69.5089V55.7692H69.9358V55.5153H69.5089V54.8461H69.2358V55.5157H68.8052V55.7692Z" fill="white"/>
<path d="M71.4982 56.9444V57.2369H71.7727V55.5142H71.4982V56.2343C71.5088 56.4317 71.4611 56.6278 71.3612 56.7983C71.31 56.8677 71.2417 56.9226 71.1629 56.9576C71.0841 56.9926 70.9975 57.0065 70.9118 56.9979C70.8627 57.0023 70.8134 56.9938 70.7686 56.9733C70.7238 56.9528 70.6851 56.921 70.6563 56.8811C70.6038 56.7939 70.5778 56.6933 70.5814 56.5916V55.5142H70.3069V56.5927C70.2987 56.7716 70.3559 56.9474 70.468 57.0871C70.5251 57.15 70.5956 57.1995 70.6742 57.2319C70.7529 57.2642 70.8377 57.2787 70.9226 57.2743C71.0398 57.2783 71.1557 57.2496 71.2574 57.1913C71.3591 57.133 71.4425 57.0475 71.4982 56.9444Z" fill="white"/>
<path d="M73.4904 57.2376H73.7649V56.1617C73.772 55.9875 73.716 55.8167 73.6072 55.6805C73.5548 55.6186 73.4893 55.5691 73.4155 55.5355C73.3215 55.4958 73.2201 55.4767 73.1181 55.4797C73.0024 55.4788 72.8891 55.5129 72.793 55.5775C72.7026 55.6374 72.6277 55.718 72.5747 55.8127V55.5153H72.2991V57.238H72.5736V56.5175C72.564 56.336 72.6058 56.1554 72.6942 55.9966C72.7416 55.9254 72.8033 55.8649 72.8754 55.819C72.9631 55.7727 73.0614 55.7503 73.1604 55.7539C73.2092 55.7503 73.258 55.7597 73.302 55.7812C73.3459 55.8026 73.3834 55.8353 73.4106 55.876C73.4641 55.9615 73.4914 56.0608 73.4892 56.1617L73.4904 57.2376Z" fill="white"/>
<path d="M74.5701 54.9206C74.5358 54.8885 74.4908 54.8704 74.4438 54.87C74.4214 54.8699 74.3991 54.8744 74.3783 54.8831C74.3576 54.8919 74.3389 54.9047 74.3233 54.9209C74.3066 54.937 74.2935 54.9563 74.2847 54.9777C74.2759 54.9991 74.2717 55.0221 74.2723 55.0453C74.2715 55.0681 74.2756 55.0908 74.2844 55.1119C74.2932 55.133 74.3064 55.1519 74.3233 55.1673C74.3383 55.1842 74.357 55.1975 74.3778 55.2063C74.3987 55.2152 74.4212 55.2192 74.4438 55.2183C74.4672 55.2188 74.4904 55.2146 74.512 55.2058C74.5337 55.197 74.5533 55.184 74.5697 55.1673C74.5858 55.1514 74.5986 55.1324 74.6074 55.1114C74.6161 55.0904 74.6206 55.068 74.6206 55.0453C74.6202 54.9988 74.6022 54.9542 74.5701 54.9206ZM74.5854 57.2376V55.5149H74.3124V57.2376H74.5854Z" fill="white"/>
<path d="M74.9741 55.7692H75.4048V57.238H75.6778V55.7692H76.1047V55.5153H75.6778V54.8461H75.4048V55.5157H74.9741V55.7692Z" fill="white"/>
<mask id="mask3_2516_10" style="mask-type:luminance" maskUnits="userSpaceOnUse" x="76" y="55" width="3" height="4">
<path d="M76.2034 55.4389H78.1545V58.0405H76.2034V55.4389Z" fill="white"/>
</mask>
<g mask="url(#mask3_2516_10)">
<path d="M76.6962 58.2158L77.8852 55.5142H77.5803L77.0875 56.6699L76.5351 55.5142H76.2224L76.9426 56.956L76.3643 58.2158H76.6962Z" fill="white"/>
</g>
</svg>
