<svg width="1367" height="1139" viewBox="0 0 1367 1139" fill="none" xmlns="http://www.w3.org/2000/svg">
<path d="M1366.53 1117.32C1366.53 1128.78 1060.62 1138.07 683.267 1138.07C305.908 1138.07 0 1128.78 0 1117.32C0 1105.86 305.908 1096.57 683.267 1096.57C1060.62 1096.57 1366.53 1105.86 1366.53 1117.32Z" fill="#FBF2FF"/>
<path d="M1283.37 621.377C1280.27 630.838 1276.81 640.198 1273.07 649.429C1274.96 639.941 1276.43 630.338 1277.47 620.66C1301.83 394.004 1095.27 120.67 854.845 82.5663C1081.23 95.5796 1321.16 263.965 1303.41 515.12C1301.76 551.286 1294.69 587.069 1283.37 621.377ZM29.6032 578.832C29.7886 578.957 29.9699 579.085 30.1552 579.21C29.9686 579.084 29.7886 578.958 29.6032 578.832ZM25.9259 576.29L26.0419 576.37L26.0139 576.352L25.9259 576.29ZM268.793 467.672L266.667 468.402C241.17 477.172 216.925 485.542 194.59 494.492C191.757 495.608 188.961 496.749 186.191 497.902C184.118 498.672 182.057 499.453 180.019 500.261C178.894 500.697 177.769 501.145 176.655 501.608C145.265 514.3 118.275 530.608 97.9899 551.826C97.4566 552.352 96.9526 552.889 96.4579 553.428C95.1299 554.852 93.8286 556.3 92.5632 557.774L92.3486 558.018C81.4846 570.364 72.8846 584.441 66.9659 600.826C66.6752 601.646 66.3832 602.48 66.1046 603.313C65.1192 606.185 64.2206 609.121 63.4112 612.134C63.1206 613.146 62.8432 614.172 62.6019 615.198C59.5539 627.094 57.8592 639.929 57.6432 653.749V653.877C57.5552 657.173 57.5552 660.544 57.6192 663.98C57.6432 665.582 57.6819 667.197 57.7579 668.826C58.0739 677.224 58.8206 686.03 60.0339 695.288C61.5392 706.942 63.7779 719.313 66.7752 732.442C67.2552 734.71 67.7752 737.018 68.3059 739.338C78.8286 776.557 93.9672 810.429 112.901 841.096C102.985 833.853 93.6006 825.814 84.7726 816.942C60.8952 792.954 41.3792 764.121 29.3139 732.442C22.7379 715.198 18.3872 697.108 16.7299 678.505C16.4526 675.288 16.2486 672.044 16.1232 668.801C15.0099 638.697 21.3472 608.749 34.1832 581.954V581.941L34.1952 581.928C40.5579 568.582 48.5886 556.018 58.0859 544.621C58.6819 543.902 59.2886 543.184 59.9072 542.48C60.3126 541.98 60.7299 541.505 61.1606 541.017C91.6526 505.684 132.997 490.709 176.655 481.582C189.847 478.825 203.239 476.594 216.622 474.492C221.806 473.684 227.005 472.889 232.177 472.094C244.154 470.249 256.03 468.377 267.653 466.197C268.323 466.069 268.994 465.941 269.651 465.825C273.345 465.12 276.999 464.377 280.63 463.594C276.658 464.966 272.699 466.325 268.793 467.672ZM1289.39 336.17C1202.41 120.196 907.911 45.8609 723.097 76.6569C610.637 87.4903 594.637 196.004 536.397 269.157C503.793 313.85 464.319 355.158 420.497 387.889H420.483C412.377 394.222 404.079 400.505 395.581 406.517C385.413 413.736 374.954 420.556 364.139 426.62C360.535 428.645 356.893 430.581 353.213 432.414C348.509 434.774 343.741 436.966 338.897 438.953C331.055 442.222 323.023 444.966 314.778 447.094L314.625 447.133L314.613 447.146L314.537 447.158C301.574 450.402 288.181 452.953 274.573 455.145C273.875 455.261 273.167 455.377 272.458 455.492C269.866 455.902 267.249 456.3 264.631 456.697C263.657 456.838 262.671 456.992 261.685 457.133C255.094 458.094 248.467 459.005 241.814 459.902C220.062 462.825 198.143 465.544 176.833 469.414C124.473 478.889 75.7299 495.197 41.9099 538.018C41.3792 538.672 40.8606 539.338 40.3552 540.005C33.0579 549.544 26.4806 560.352 20.7512 572.66C21.6339 573.284 22.5179 573.905 23.4006 574.525C22.4992 573.893 21.6152 573.27 20.7512 572.66C8.07923 598.338 0.945901 626.916 0.0859013 655.416C-0.142099 663.108 0.0858935 670.813 0.74456 678.505C2.31123 696.838 6.33389 715.006 12.4926 732.442C23.1046 762.518 40.0526 790.39 61.6659 813.084C79.9419 832.262 102.087 847.942 125.561 860.326C131.265 868.456 137.234 876.353 143.494 883.994C150.451 892.148 157.646 900.032 165.071 907.622C166.031 908.609 166.993 909.584 167.955 910.558C173.595 916.237 179.35 921.75 185.231 927.097C186.066 927.878 186.913 928.636 187.759 929.392C192.806 933.93 197.929 938.353 203.139 942.661C212.637 950.506 222.402 957.994 232.417 965.097C233.885 966.161 235.365 967.2 236.843 968.225C238.198 969.173 239.565 970.109 240.929 971.033C242.573 972.161 244.242 973.277 245.901 974.392C249.187 976.57 252.502 978.725 255.841 980.828L255.866 980.841C256.018 980.944 256.183 981.045 256.347 981.148C269.361 989.353 282.73 996.994 296.426 1004.08C453.089 1085.19 650.489 1093.59 818.355 1048.71C824.882 1046.97 831.37 1045.15 837.807 1043.24L838.073 1043.16C856.197 1037.79 873.942 1031.78 891.191 1025.17C892.685 1024.62 894.189 1024.08 895.694 1023.53C901.601 1021.37 907.507 1019.15 913.402 1016.88C925.265 1012.32 937.077 1007.53 948.826 1002.51C950.293 1001.88 951.747 1001.25 953.215 1000.62C956.149 999.341 959.071 998.058 961.979 996.764C969.265 993.52 976.613 990.122 983.986 986.584C986.769 985.25 989.562 983.892 992.358 982.506C992.498 982.444 992.637 982.366 992.777 982.302C1016.65 970.514 1039.96 957.54 1062.37 943.206L1062.37 943.225C1062.76 942.978 1063.14 942.724 1063.53 942.477C1064.83 941.641 1066.12 940.796 1067.41 939.952C1069.6 938.525 1071.78 937.08 1073.95 935.621C1078.68 932.445 1083.39 929.225 1088.04 925.917C1093.65 921.93 1099.19 917.84 1104.65 913.648C1108.51 910.686 1112.33 907.673 1116.11 904.596C1129.08 894.109 1141.59 882.994 1153.52 871.224C1156.59 868.224 1159.6 865.161 1162.57 862.07C1163.77 860.828 1164.97 859.57 1166.16 858.314H1166.17C1171.44 852.724 1176.56 846.994 1181.55 841.109C1194.28 826.096 1206.05 810.16 1216.64 793.429C1228.91 774.096 1239.59 753.698 1248.39 732.442H1248.4C1248.53 732.134 1248.65 731.826 1248.79 731.518C1249.12 730.71 1249.45 729.89 1249.79 729.07C1249.85 728.864 1249.95 728.673 1250.03 728.468C1250.39 727.582 1250.75 726.698 1251.08 725.801C1251.59 724.544 1252.07 723.288 1252.55 722.032V722.005C1254.35 716.505 1256.25 711.109 1258.4 705.813C1260.31 701.032 1262.39 696.365 1264.75 691.801C1267.07 687.262 1269.64 682.813 1272.53 678.505C1275.08 674.224 1277.53 669.902 1279.85 665.53L1279.87 665.505C1280.37 664.596 1280.85 663.685 1281.32 662.776C1287.99 650.096 1293.81 637.03 1298.81 623.685C1333.25 531.786 1328.93 426.184 1289.39 336.17Z" fill="#511168" fill-opacity="0.1"/>
<path d="M403.39 370.507C475.394 328.367 509.559 247.141 485.905 205.607C462.247 164.073 370.069 151.952 336.669 240.013C306.833 318.683 201.499 316.679 225.154 358.213C248.81 399.747 331.386 412.648 403.39 370.507Z" fill="#F0F7FF"/>
<path d="M950.63 868.849C988.815 861.099 1026.07 885.764 1033.83 923.971C1041.58 962.153 1016.89 999.415 978.705 1007.17C940.521 1014.91 903.261 990.228 895.511 952.044C887.755 913.839 912.447 876.6 950.63 868.849ZM840.603 965.812C843.206 978.64 855.717 986.928 868.543 984.324L877.11 982.585C881.601 991.396 887.333 999.379 894.054 1006.33L894.055 1006.33L889.937 1012.55C882.707 1023.46 885.691 1038.16 896.603 1045.39C907.515 1052.62 922.222 1049.64 929.451 1038.73L934.287 1031.43C943.439 1034.42 953.13 1036.08 963.049 1036.24L964.534 1043.55C967.137 1056.38 979.646 1064.67 992.474 1062.07C1005.3 1059.46 1013.59 1046.95 1010.99 1034.13L1009.25 1025.56C1018.06 1021.07 1026.04 1015.34 1032.99 1008.62L1032.99 1008.62L1039.21 1012.73C1050.12 1019.96 1064.83 1016.98 1072.06 1006.07C1079.29 995.155 1076.3 980.449 1065.39 973.22L1058.09 968.384C1061.08 959.231 1062.74 949.54 1062.9 939.621L1070.22 938.137C1083.04 935.533 1091.33 923.024 1088.73 910.196C1086.13 897.368 1073.62 889.08 1060.79 891.684L1052.21 893.425L1052.2 893.42C1047.74 884.603 1042.01 876.643 1035.26 869.697L1039.4 863.461C1046.63 852.551 1043.64 837.844 1032.73 830.615C1021.82 823.385 1007.11 826.369 999.882 837.283L995.043 844.585C985.891 841.593 976.202 839.935 966.286 839.776L964.799 832.453C962.195 819.625 949.685 811.337 936.858 813.941C924.03 816.545 915.742 829.055 918.347 841.881L920.089 850.468L920.079 850.471C911.266 854.939 903.306 860.664 896.361 867.407L890.125 863.275C879.213 856.045 864.507 859.031 857.278 869.941C850.047 880.853 853.033 895.56 863.945 902.788L871.246 907.627C868.254 916.78 866.597 926.469 866.438 936.385L859.115 937.871C846.287 940.476 837.999 952.984 840.603 965.812Z" fill="#511168"/>
<path d="M1008.38 929.136C1013.28 953.275 997.681 976.816 973.54 981.716C949.401 986.616 925.838 971.023 920.938 946.884C916.038 922.744 931.652 899.176 955.793 894.277C979.932 889.377 1003.48 904.996 1008.38 929.136Z" fill="#511168"/>
<path d="M756.294 812.676C779.406 807.985 801.958 822.915 806.65 846.04C811.342 869.152 796.4 891.705 773.288 896.397C750.176 901.088 727.622 886.145 722.93 863.033C718.237 839.908 733.182 817.368 756.294 812.676ZM689.696 871.367C691.272 879.132 698.844 884.148 706.608 882.572L711.793 881.52C714.512 886.853 717.98 891.684 722.049 895.891L722.05 895.892L719.557 899.655C715.181 906.259 716.988 915.161 723.592 919.536C730.197 923.912 739.098 922.105 743.474 915.501L746.402 911.083C751.941 912.895 757.808 913.899 763.81 913.995L764.709 918.423C766.286 926.188 773.857 931.204 781.622 929.629C789.386 928.053 794.404 920.481 792.826 912.716L791.776 907.533C797.108 904.816 801.938 901.347 806.144 897.279L806.148 897.276L809.909 899.768C816.514 904.144 825.414 902.337 829.792 895.732C834.168 889.128 832.36 880.227 825.754 875.851L821.338 872.924C823.149 867.383 824.153 861.517 824.248 855.515L828.678 854.616C836.444 853.039 841.46 845.468 839.884 837.703C838.306 829.939 830.737 824.923 822.97 826.499L817.777 827.552L817.776 827.548C815.07 822.212 811.605 817.395 807.522 813.189L810.022 809.416C814.4 802.811 812.592 793.909 805.986 789.533C799.382 785.157 790.481 786.964 786.105 793.569L783.177 797.989C777.636 796.179 771.772 795.175 765.77 795.079L764.87 790.647C763.294 782.883 755.722 777.865 747.958 779.441C740.193 781.017 735.177 788.589 736.753 796.353L737.808 801.551L737.802 801.552C732.466 804.256 727.649 807.723 723.446 811.804L719.67 809.303C713.066 804.927 704.165 806.733 699.789 813.337C695.412 819.943 697.22 828.844 703.824 833.22L708.244 836.148C706.433 841.688 705.429 847.553 705.333 853.556L700.901 854.455C693.136 856.031 688.12 863.603 689.696 871.367Z" fill="#511168"/>
<path d="M791.247 849.167C794.214 863.779 784.774 878.028 770.162 880.993C755.55 883.959 741.289 874.521 738.322 859.909C735.355 845.299 744.807 831.033 759.419 828.067C774.03 825.101 788.282 834.556 791.247 849.167Z" fill="#511168"/>
<path d="M392.523 436.733L392.767 436.705C395.872 436.123 398.551 435.483 400.727 434.809C401.663 434.517 402.185 433.524 401.895 432.588C401.605 431.652 400.612 431.129 399.675 431.419C397.628 432.055 395.083 432.66 392.112 433.216C391.148 433.397 390.515 434.327 390.695 435.288C390.86 436.171 391.652 436.777 392.523 436.733Z" fill="#511168"/>
<path d="M588.665 79.2373C588.331 78.3173 588.809 77.2999 589.731 76.9679C594.819 75.1319 599.862 73.1746 604.721 71.1493C605.622 70.768 606.665 71.1985 607.042 72.1025C607.418 73.0065 606.991 74.0466 606.086 74.4226C601.175 76.4719 596.077 78.4519 590.935 80.3053C590.765 80.3679 590.591 80.4 590.419 80.4093C589.662 80.4466 588.934 79.9893 588.665 79.2373ZM557.733 88.7093C557.481 87.7626 558.043 86.7906 558.99 86.5386C564.222 85.1453 569.43 83.6466 574.471 82.0826C575.405 81.7893 576.402 82.3159 576.691 83.2519C576.982 84.1879 576.459 85.1813 575.522 85.4719C570.437 87.0493 565.182 88.5626 559.905 89.9679C559.781 90.0012 559.657 90.02 559.533 90.0253C558.715 90.0653 557.953 89.5333 557.733 88.7093ZM526.143 95.7745C525.959 94.8105 526.589 93.8799 527.551 93.6959C532.885 92.6679 538.197 91.5573 543.339 90.3933C544.295 90.1853 545.245 90.7773 545.461 91.7307C545.678 92.6867 545.078 93.6373 544.123 93.8546C538.943 95.0266 533.593 96.1466 528.222 97.1799L527.971 97.2106C527.103 97.2533 526.313 96.6519 526.143 95.7745ZM494.179 100.873C494.047 99.9012 494.729 99.008 495.699 98.876C501.123 98.14 506.494 97.3413 511.665 96.5053C512.633 96.3639 513.543 97.0052 513.698 97.9745C513.855 98.9425 513.198 99.852 512.231 100.009C507.031 100.849 501.63 101.652 496.177 102.392L496.023 102.407C495.114 102.452 494.303 101.792 494.179 100.873ZM462.022 104.464C461.93 103.488 462.646 102.624 463.622 102.531C469.111 102.011 474.514 101.451 479.682 100.865C480.649 100.768 481.533 101.456 481.643 102.429C481.753 103.404 481.053 104.281 480.079 104.392C474.893 104.977 469.466 105.541 463.957 106.063L463.875 106.069C462.934 106.116 462.113 105.412 462.022 104.464ZM429.789 106.995C429.722 106.017 430.461 105.171 431.439 105.105C436.791 104.743 442.159 104.352 447.538 103.924C448.511 103.859 449.37 104.573 449.449 105.552C449.525 106.529 448.797 107.384 447.821 107.463C442.426 107.893 437.045 108.284 431.678 108.645L431.645 108.648C430.682 108.696 429.853 107.963 429.789 106.995ZM397.466 108.912C397.413 107.935 398.163 107.097 399.141 107.044C404.499 106.752 409.886 106.449 415.295 106.128L415.314 106.127C416.285 106.079 417.115 106.823 417.173 107.795C417.231 108.772 416.485 109.612 415.506 109.671C410.09 109.992 404.698 110.295 399.337 110.588L399.326 110.589C398.351 110.637 397.519 109.888 397.466 108.912ZM365.137 110.677C365.082 109.699 365.83 108.86 366.809 108.804C372.157 108.5 377.55 108.207 382.978 107.915H382.986C383.961 107.867 384.794 108.615 384.846 109.589C384.899 110.569 384.147 111.404 383.17 111.459C377.743 111.751 372.354 112.043 367.01 112.347L366.997 112.348C366.023 112.396 365.193 111.651 365.137 110.677ZM332.831 112.819C332.755 111.841 333.486 110.989 334.463 110.913C339.794 110.503 345.187 110.128 350.634 109.777C351.614 109.713 352.457 110.455 352.519 111.435C352.582 112.412 351.842 113.255 350.863 113.319C345.43 113.669 340.053 114.043 334.737 114.452L334.686 114.455C333.73 114.503 332.905 113.78 332.831 112.819ZM300.614 116.007C300.497 115.035 301.19 114.152 302.163 114.033C307.273 113.417 312.702 112.833 318.302 112.3C319.249 112.221 320.143 112.923 320.238 113.897C320.33 114.873 319.614 115.74 318.638 115.833C313.07 116.364 307.669 116.944 302.589 117.556L302.461 117.567C301.541 117.613 300.727 116.939 300.614 116.007ZM268.662 121.147C268.47 120.184 269.094 119.249 270.055 119.059C275.091 118.053 280.479 117.105 286.069 116.239C287.041 116.085 287.945 116.752 288.094 117.719C288.243 118.688 287.579 119.593 286.611 119.744C281.073 120.603 275.738 121.543 270.749 122.539L270.487 122.571C269.625 122.613 268.837 122.019 268.662 121.147ZM239.113 128.957L238.614 127.252C243.533 125.605 248.771 124.061 254.183 122.665C255.129 122.423 256.101 122.991 256.345 123.94C256.589 124.889 256.018 125.857 255.07 126.101C249.738 127.477 244.581 128.996 239.743 130.616L239.113 128.957ZM207.527 141.811C207.103 140.928 207.474 139.868 208.357 139.444C213.101 137.156 218.119 134.949 223.27 132.884C224.181 132.516 225.214 132.959 225.577 133.869C225.942 134.78 225.501 135.813 224.591 136.177C219.514 138.215 214.57 140.389 209.898 142.64C209.678 142.745 209.446 142.803 209.215 142.813C208.523 142.848 207.847 142.473 207.527 141.811ZM179.806 158.405C179.238 157.609 179.422 156.5 180.219 155.929C184.521 152.856 189.139 149.88 193.946 147.08C194.794 146.585 195.878 146.871 196.371 147.72C196.865 148.567 196.578 149.652 195.731 150.145C191.019 152.891 186.497 155.809 182.283 158.819C181.995 159.024 181.669 159.131 181.341 159.147C180.757 159.175 180.171 158.916 179.806 158.405ZM156.081 180.279C155.341 179.637 155.262 178.515 155.905 177.776C159.39 173.761 163.267 169.844 167.429 166.127C168.158 165.475 169.283 165.539 169.934 166.269C170.587 167.001 170.523 168.121 169.794 168.776C165.741 172.392 161.97 176.201 158.583 180.103C158.254 180.481 157.797 180.688 157.331 180.712C156.891 180.733 156.441 180.591 156.081 180.279ZM139.261 207.757C138.359 207.369 137.943 206.327 138.33 205.427C140.455 200.479 143.054 195.593 146.051 190.905C146.579 190.083 147.675 189.839 148.502 190.367C149.327 190.895 149.569 191.992 149.041 192.819C146.147 197.344 143.641 202.057 141.59 206.827C141.314 207.471 140.702 207.867 140.047 207.899C139.786 207.912 139.517 207.868 139.261 207.757ZM132.625 239.247C131.645 239.203 130.886 238.373 130.929 237.395C131.17 231.932 131.929 226.439 133.182 221.067C133.405 220.115 134.355 219.528 135.311 219.741C136.266 219.965 136.859 220.92 136.637 221.873C135.434 227.033 134.706 232.308 134.474 237.552C134.434 238.473 133.695 239.2 132.791 239.245L132.625 239.247ZM188.209 252.335C183.294 250.92 178.133 250.868 173.183 252.197C172.237 252.453 171.263 251.888 171.009 250.943C170.754 249.997 171.317 249.024 172.262 248.769C177.837 247.276 183.657 247.332 189.19 248.923C190.131 249.195 190.677 250.176 190.405 251.119C190.19 251.868 189.525 252.364 188.789 252.4C188.597 252.411 188.403 252.388 188.209 252.335ZM135.729 269.887C133.899 264.752 132.563 259.361 131.757 253.867C131.615 252.896 132.286 251.996 133.255 251.855C134.245 251.704 135.127 252.385 135.27 253.352C136.041 258.617 137.321 263.779 139.071 268.695C139.401 269.617 138.918 270.633 137.995 270.961C137.827 271.021 137.657 271.055 137.486 271.063C136.726 271.1 135.998 270.64 135.729 269.887ZM147.422 272.099C146.591 271.577 146.341 270.483 146.859 269.652C150.054 264.555 153.638 260.257 157.514 256.877C158.25 256.233 159.373 256.308 160.017 257.048C160.661 257.787 160.583 258.908 159.847 259.551C156.234 262.701 152.877 266.735 149.867 271.536C149.547 272.047 149.01 272.339 148.45 272.367C148.101 272.384 147.741 272.297 147.422 272.099ZM208.579 273.135C207.471 268.348 204.918 263.832 201.194 260.072C200.505 259.376 200.51 258.253 201.206 257.563C201.903 256.868 203.026 256.877 203.715 257.573C207.905 261.801 210.781 266.905 212.037 272.336C212.258 273.289 211.663 274.244 210.707 274.465L210.394 274.508C209.553 274.549 208.777 273.985 208.579 273.135ZM135.783 302.171C134.835 301.927 134.262 300.959 134.507 300.009C134.69 299.304 134.879 298.593 135.074 297.879C136.387 293.092 137.885 288.561 139.525 284.408C139.885 283.496 140.914 283.049 141.829 283.409C142.159 283.54 142.43 283.76 142.622 284.033C142.557 283.38 142.855 282.716 143.449 282.345C144.281 281.832 145.375 282.081 145.894 282.913C148.794 287.565 152.122 291.655 155.785 295.068C156.501 295.737 156.539 296.86 155.871 297.576C155.203 298.296 154.081 298.331 153.363 297.665C149.501 294.061 145.994 289.763 142.942 284.885C142.969 285.157 142.934 285.44 142.826 285.712C141.233 289.745 139.775 294.155 138.497 298.816C138.305 299.513 138.122 300.205 137.945 300.895C137.746 301.667 137.07 302.187 136.314 302.225C136.139 302.233 135.961 302.216 135.783 302.171ZM197.141 301.957C196.55 301.176 196.703 300.064 197.485 299.472L197.898 299.152C202.163 295.784 205.274 291.972 207.143 287.817C207.547 286.925 208.597 286.527 209.491 286.928C210.385 287.329 210.783 288.38 210.381 289.275C208.274 293.953 204.814 298.215 200.09 301.944L199.627 302.301C199.331 302.524 198.989 302.641 198.645 302.659C198.078 302.687 197.509 302.444 197.141 301.957ZM167.378 306.813C166.469 306.448 166.029 305.412 166.395 304.504C166.761 303.595 167.794 303.156 168.703 303.521C173.686 305.528 178.713 306.207 183.634 305.512C184.605 305.359 185.505 306.049 185.641 307.02C185.779 307.989 185.105 308.888 184.134 309.027C183.223 309.155 182.298 309.244 181.385 309.289C176.738 309.519 172.026 308.687 167.378 306.813ZM130.849 332.499C130.587 327.232 130.791 321.727 131.45 316.131C131.566 315.159 132.445 314.472 133.419 314.576C134.394 314.691 135.089 315.573 134.975 316.547C134.338 321.947 134.141 327.255 134.393 332.324L134.397 332.401C134.445 333.381 133.687 334.173 132.709 334.221C131.731 334.269 130.897 333.477 130.849 332.499ZM138.961 364.305C136.526 359.381 134.61 354.181 133.262 348.851C133.021 347.9 133.597 346.935 134.547 346.695C135.493 346.451 136.462 347.031 136.702 347.98C137.989 353.069 139.819 358.033 142.142 362.732C142.575 363.611 142.215 364.675 141.338 365.109C141.113 365.221 140.874 365.28 140.639 365.291C139.955 365.324 139.283 364.959 138.961 364.305ZM158.902 390.307C154.726 386.495 150.963 382.437 147.722 378.248C147.122 377.475 147.262 376.359 148.038 375.757C148.813 375.161 149.926 375.3 150.526 376.076C153.646 380.104 157.269 384.011 161.294 387.687C162.018 388.347 162.069 389.469 161.407 390.193C161.079 390.553 160.635 390.747 160.185 390.768C159.73 390.791 159.265 390.639 158.902 390.307ZM185.786 408.939C180.815 406.283 176.102 403.433 171.779 400.468C170.97 399.915 170.765 398.809 171.318 398.001C171.873 397.193 172.978 396.985 173.786 397.541C178.002 400.431 182.603 403.213 187.458 405.809C188.322 406.271 188.649 407.345 188.186 408.211C187.882 408.781 187.31 409.116 186.707 409.145C186.398 409.161 186.079 409.095 185.786 408.939ZM215.775 421.799C210.49 419.987 205.362 418.027 200.531 415.972C199.63 415.589 199.211 414.547 199.594 413.644C199.977 412.744 201.017 412.321 201.922 412.707C206.674 414.728 211.722 416.657 216.925 418.441C217.853 418.76 218.346 419.768 218.029 420.696C217.786 421.403 217.141 421.857 216.437 421.892C216.219 421.903 215.994 421.875 215.775 421.799ZM247.154 430.543C241.746 429.337 236.429 428.013 231.35 426.607C230.406 426.345 229.851 425.367 230.114 424.423C230.375 423.48 231.355 422.927 232.297 423.187C237.318 424.576 242.577 425.887 247.927 427.08C248.883 427.292 249.486 428.241 249.274 429.197C249.095 429.993 248.407 430.545 247.629 430.584C247.473 430.591 247.314 430.579 247.154 430.543ZM279.191 436.221C273.754 435.481 268.347 434.641 263.125 433.72C262.159 433.551 261.515 432.629 261.685 431.665C261.855 430.7 262.777 430.052 263.739 430.227C268.918 431.14 274.278 431.973 279.67 432.704C280.639 432.836 281.321 433.731 281.189 434.701C281.071 435.561 280.357 436.193 279.519 436.235L279.191 436.221ZM311.561 439.427C306.162 439.084 300.709 438.641 295.35 438.113C294.374 438.017 293.662 437.149 293.757 436.172C293.854 435.199 294.729 434.497 295.697 434.581C301.017 435.107 306.429 435.545 311.787 435.888C312.765 435.948 313.507 436.793 313.445 437.771C313.386 438.68 312.653 439.385 311.763 439.429L311.561 439.427ZM344.073 440.395C338.731 440.423 333.258 440.353 327.806 440.191C326.826 440.161 326.057 439.344 326.085 438.364C326.115 437.387 326.927 436.639 327.911 436.643C333.323 436.807 338.754 436.873 344.055 436.847C345.035 436.841 345.834 437.631 345.839 438.611C345.843 439.565 345.095 440.347 344.153 440.393L344.073 440.395ZM360.343 440C359.363 440.044 358.535 439.284 358.493 438.305C358.45 437.331 359.203 436.504 360.178 436.455H360.187L362.013 436.369C367.037 436.121 371.825 435.781 376.239 435.36C377.194 435.295 378.081 435.981 378.177 436.957C378.269 437.932 377.554 438.799 376.578 438.893C372.107 439.32 367.266 439.664 362.186 439.915L360.343 440Z" fill="#511168"/>
<path d="M620.571 67.7959C620.799 67.7839 621.031 67.7279 621.251 67.6239C623.662 66.4639 626.059 65.2692 628.443 64.0399C629.312 63.5906 629.655 62.5199 629.206 61.6493C628.756 60.7786 627.684 60.4332 626.815 60.8852C624.46 62.0999 622.092 63.2799 619.712 64.4239C618.83 64.8492 618.458 65.9106 618.883 66.7933C619.202 67.4559 619.879 67.8306 620.571 67.7959Z" fill="#511168"/>
<path d="M645.906 60.6467L688.629 38.9428L663.954 25.2988L645.906 60.6467Z" fill="#511168"/>
<path d="M689.281 47.4373L733.748 0.0958524L665.352 36.1505L689.281 47.4373Z" fill="#511168"/>
<path d="M733.76 9.64892e-05L628.441 10.1401L651.476 22.3774L733.76 9.64892e-05Z" fill="#511168"/>
<path d="M733.748 0.0960808L665.314 36.4134L645.906 60.6467L651.296 22.0734L733.748 0.0960808Z" fill="#511168"/>
<path d="M572.341 191.709H276.356C270.173 191.709 265.16 196.723 265.16 202.907V697.844C265.16 704.028 270.173 709.042 276.356 709.042H572.341C578.524 709.042 583.538 704.028 583.538 697.844V202.907C583.538 196.723 578.524 191.709 572.341 191.709Z" fill="#A344C5"/>
<path d="M274.914 689.153V252.811C274.914 247.212 279.453 242.676 285.049 242.676H563.653C569.249 242.676 573.787 247.212 573.787 252.811V689.155C573.787 694.752 569.25 699.288 563.653 699.288H285.049C279.453 699.288 274.914 694.752 274.914 689.153Z" fill="white"/>
<path d="M380.31 503.824C380.834 503.321 380.554 502.437 379.838 502.327L375.9 501.723C375.615 501.679 375.37 501.497 375.243 501.239L373.511 497.652C373.194 496.999 372.267 496.991 371.94 497.639L370.148 501.197C370.018 501.453 369.771 501.631 369.486 501.671L365.539 502.211C364.82 502.309 364.526 503.189 365.042 503.7L367.871 506.504C368.075 506.707 368.168 506.997 368.118 507.281L367.411 511.201C367.283 511.916 368.028 512.467 368.675 512.135L372.215 510.309C372.471 510.177 372.776 510.18 373.03 510.316L376.54 512.199C377.18 512.541 377.935 512.003 377.818 511.285L377.178 507.355C377.13 507.069 377.227 506.781 377.435 506.581L380.31 503.824Z" fill="#C77AE3"/>
<path d="M406.145 503.824C406.67 503.321 406.39 502.437 405.673 502.327L401.736 501.723C401.452 501.679 401.205 501.497 401.08 501.239L399.346 497.652C399.03 496.999 398.102 496.991 397.777 497.639L395.985 501.197C395.854 501.453 395.608 501.631 395.322 501.671L391.374 502.211C390.656 502.309 390.362 503.189 390.877 503.7L393.708 506.504C393.912 506.707 394.005 506.997 393.953 507.281L393.248 511.201C393.12 511.916 393.865 512.467 394.51 512.135L398.052 510.309C398.306 510.177 398.612 510.18 398.865 510.316L402.377 512.199C403.017 512.541 403.772 512.003 403.654 511.285L403.013 507.355C402.966 507.069 403.064 506.781 403.27 506.581L406.145 503.824Z" fill="#C77AE3"/>
<path d="M431.978 503.824C432.502 503.321 432.223 502.437 431.506 502.327L427.568 501.723C427.283 501.679 427.038 501.497 426.912 501.239L425.179 497.652C424.863 496.999 423.935 496.991 423.61 497.639L421.816 501.197C421.687 501.453 421.439 501.631 421.154 501.671L417.207 502.211C416.488 502.309 416.194 503.189 416.71 503.7L419.54 506.504C419.744 506.707 419.836 506.997 419.786 507.281L419.08 511.201C418.952 511.916 419.698 512.467 420.343 512.135L423.883 510.309C424.139 510.177 424.444 510.18 424.698 510.316L428.21 512.199C428.85 512.541 429.603 512.003 429.487 511.285L428.846 507.355C428.798 507.069 428.895 506.781 429.103 506.581L431.978 503.824Z" fill="#C77AE3"/>
<path d="M457.814 503.824C458.338 503.321 458.058 502.437 457.342 502.327L453.404 501.723C453.119 501.679 452.874 501.497 452.748 501.239L451.015 497.652C450.698 496.999 449.771 496.991 449.444 497.639L447.652 501.197C447.523 501.453 447.275 501.631 446.99 501.671L443.043 502.211C442.324 502.309 442.03 503.189 442.546 503.7L445.375 506.504C445.58 506.707 445.672 506.997 445.622 507.281L444.915 511.201C444.788 511.916 445.532 512.467 446.179 512.135L449.719 510.309C449.975 510.177 450.28 510.18 450.534 510.316L454.044 512.199C454.684 512.541 455.439 512.003 455.322 511.285L454.682 507.355C454.634 507.069 454.731 506.781 454.939 506.581L457.814 503.824Z" fill="#C77AE3"/>
<path d="M483.65 503.824C484.174 503.321 483.894 502.437 483.176 502.327L479.239 501.723C478.955 501.679 478.71 501.497 478.583 501.239L476.851 497.652C476.534 496.999 475.607 496.991 475.28 497.639L473.488 501.197C473.358 501.453 473.111 501.631 472.826 501.671L468.879 502.211C468.16 502.309 467.866 503.189 468.382 503.7L471.211 506.504C471.415 506.707 471.508 506.997 471.458 507.281L470.751 511.201C470.623 511.916 471.368 512.467 472.014 512.135L475.555 510.309C475.811 510.177 476.116 510.18 476.37 510.316L479.88 512.199C480.519 512.541 481.275 512.003 481.158 511.285L480.516 507.355C480.47 507.069 480.567 506.781 480.775 506.581L483.65 503.824Z" fill="#C77AE3"/>
<path d="M457.468 460.284H329.356C327.564 460.284 326.109 458.831 326.109 457.037V455.952C326.109 454.16 327.564 452.705 329.356 452.705H457.468C459.261 452.705 460.715 454.16 460.715 455.952V457.037C460.715 458.831 459.261 460.284 457.468 460.284Z" fill="#C77AE3"/>
<path d="M519.346 460.284H479.997C478.203 460.284 476.75 458.831 476.75 457.037V455.952C476.75 454.16 478.203 452.705 479.997 452.705H519.346C521.138 452.705 522.591 454.16 522.591 455.952V457.037C522.591 458.831 521.138 460.284 519.346 460.284Z" fill="#C77AE3"/>
<path d="M392.9 482.509H329.9C327.805 482.509 326.109 480.813 326.109 478.721C326.109 476.628 327.805 474.932 329.9 474.932H392.9C394.993 474.932 396.688 476.628 396.688 478.721C396.688 480.813 394.993 482.509 392.9 482.509Z" fill="#C77AE3"/>
<path d="M518.802 482.509H408.383C406.291 482.509 404.594 480.813 404.594 478.721C404.594 476.628 406.291 474.932 408.383 474.932H518.802C520.895 474.932 522.591 476.628 522.591 478.721C522.591 480.813 520.895 482.509 518.802 482.509Z" fill="#C77AE3"/>
<path d="M343.108 273.303C335.646 273.303 329.575 279.373 329.575 286.836V416.655C329.575 424.117 335.646 430.188 343.108 430.188H505.596C513.058 430.188 519.128 424.117 519.128 416.655V286.836C519.128 279.373 513.058 273.303 505.596 273.303H343.108ZM505.596 437.115H343.108C331.826 437.115 322.648 427.936 322.648 416.655V286.836C322.648 275.555 331.826 266.377 343.108 266.377H505.596C516.878 266.377 526.055 275.555 526.055 286.836V416.655C526.055 427.936 516.878 437.115 505.596 437.115Z" fill="#C77AE3"/>
<path d="M476.816 421.921H371.884C370.295 421.921 369.095 420.469 369.404 418.911C371.624 407.76 375.687 397.012 383.032 391.515C390.163 386.172 400.003 382.499 409.844 381.487C410.994 381.369 412.142 381.291 413.292 381.252H413.408C414.008 381.223 414.607 381.212 415.207 381.212C417.023 381.212 418.831 381.311 420.598 381.507C421.187 381.576 421.767 381.653 422.347 381.752C424.822 382.145 427.346 382.145 429.82 381.752C430.214 381.693 430.616 381.635 431.01 381.585C432.256 381.408 433.532 381.291 434.81 381.212C435.154 381.192 435.507 381.172 435.851 381.163C436.911 381.115 437.982 381.104 439.043 381.124C448.912 381.291 459.068 384.04 466.708 389.285C473.644 394.048 477.348 406.307 479.312 419.008C479.548 420.539 478.364 421.921 476.816 421.921Z" fill="#EBCBF6"/>
<path d="M439.045 380.983C439.04 389.045 432.507 395.58 424.443 395.58C416.431 395.58 409.921 389.124 409.84 381.129C413.999 380.885 418.217 381.095 422.349 381.753C424.821 382.145 427.349 382.145 429.821 381.753C432.929 381.26 436.012 380.995 439.045 380.983Z" fill="white"/>
<path d="M466.457 341.377C465.077 338.372 479.594 328.441 464.313 314.095C464.313 314.095 468.838 290.535 442.928 291.684C442.928 291.684 437.081 280.761 424.518 281.617C416.246 282.183 410.842 289.603 410.842 289.603C393.774 282.967 399.514 302.675 390.893 303.377C377.661 304.453 382.661 324.3 382.661 324.3C370.508 339.069 382.598 351.169 388.508 352.3C397.845 354.087 388.442 362.312 399.893 369.993C408.304 375.633 424.518 370.916 424.518 370.916C424.518 370.916 441.834 381.933 447.277 363.069C464.108 366.608 470.765 350.761 466.457 341.377Z" fill="#30334D"/>
<path d="M435.866 381.209L424.581 384.693L413.297 381.209L416.707 353.761H431.42L435.866 381.209Z" fill="#F9CBCB"/>
<path d="M435.866 381.209C435.866 384.165 432.21 390.812 424.712 390.812C417.212 390.812 413.297 384.165 413.297 381.209H435.866Z" fill="#F9CBCB"/>
<path d="M429.504 389.78C432.009 388.616 433.765 386.637 434.789 384.748C432.987 388.443 429.828 389.664 429.504 389.78Z" fill="#FAEBEB"/>
<path d="M435.864 381.209H431.04C431.572 374.339 431.179 366.112 428.715 366.112C428.552 366.112 428.379 366.148 428.196 366.224C427.084 366.684 425.724 366.856 424.307 366.856C420.041 366.856 415.273 365.291 415.273 365.291L415.595 362.701C420.539 364.364 424.515 364.451 424.515 364.451C424.515 364.451 428.205 364.371 432.895 362.879L435.864 381.209Z" fill="#F4BBBB"/>
<path d="M429.477 389.789C430.155 388.476 430.743 385.056 431.042 381.209H435.866C435.659 382.585 435.273 383.756 434.789 384.748C433.765 386.637 432.009 388.616 429.503 389.78C429.486 389.787 429.477 389.789 429.477 389.789Z" fill="#F4BBBB"/>
<path d="M459.35 330.989C457.226 324.967 450.354 327.732 450.354 327.732C450.335 324.731 450.732 295.2 424.518 294.513C398.318 295.2 397.588 328.993 397.588 328.993C394.702 326.805 390.768 326.241 389.69 330.989C387.899 338.863 397.778 343.993 397.778 343.993C402.772 363.976 424.518 364.451 424.518 364.451C424.518 364.451 446.266 363.976 451.26 343.993C451.26 343.993 462.034 338.604 459.35 330.989Z" fill="#F9CBCB"/>
<path d="M450.352 327.732C450.344 326.433 450.413 320.167 448.371 313.419C451.849 318.64 454.08 323.8 455.351 327.26C454.829 327.144 454.304 327.099 453.801 327.099C451.927 327.099 450.352 327.732 450.352 327.732ZM410.555 299.14C410.263 296.473 411.373 294.032 416.423 294.032C417.887 294.032 419.684 294.237 421.873 294.703C417.291 295.248 413.572 296.873 410.555 299.14Z" fill="#2F2F47"/>
<path d="M451.584 332.697C442.048 332.696 442.735 316.884 439.489 316.761C434.055 316.556 426.156 314.095 424.58 306.915C424 304.269 422.316 303.435 420.42 303.435C417.169 303.435 413.296 305.889 413.296 305.889C413.296 305.889 410.907 302.351 410.555 299.14C413.572 296.873 417.291 295.248 421.873 294.703C422.999 294.941 424.229 295.249 425.569 295.633C436.159 298.66 443.492 306.099 448.371 313.419C450.413 320.167 450.344 326.433 450.352 327.732C450.352 327.732 451.927 327.099 453.801 327.099C454.304 327.099 454.829 327.144 455.351 327.26C456.301 329.844 456.716 331.48 456.716 331.48C454.733 332.328 453.04 332.697 451.584 332.697Z" fill="#F4BBBB"/>
<path d="M386.337 329.483C397.389 317.947 399.268 341.103 406.442 330.788C410.27 325.284 406.139 321.691 404.453 319.319C403.219 317.584 402.419 311.935 407.567 311.393C417.689 310.328 414.048 304.419 415.776 301.769C419.173 296.556 427.565 297.553 429.84 304.556C431.173 308.659 435.796 311.129 438.456 312.261C441.247 313.451 446.352 314.812 445.497 322.149C444.691 329.065 452.856 337.435 463.048 327.245L446.346 299.488L431.061 291.012L402.754 298.089C402.754 298.089 380.209 335.877 386.337 329.483Z" fill="#30334D"/>
<path d="M427.749 412.377C427.749 414.204 426.269 415.685 424.442 415.685C422.615 415.685 421.133 414.204 421.133 412.377C421.133 410.551 422.615 409.069 424.442 409.069C426.269 409.069 427.749 410.551 427.749 412.377Z" fill="white"/>
<path d="M366.373 681.156H332.93C326.357 681.156 321.027 675.828 321.027 669.255V644.276C321.027 637.703 326.357 632.375 332.93 632.375H366.373C372.946 632.375 378.275 637.703 378.275 644.276V669.255C378.275 675.828 372.946 681.156 366.373 681.156Z" fill="#C77AE3"/>
<path d="M523.91 642.595H393.109C391.029 642.595 389.344 640.909 389.344 638.829C389.344 636.751 391.029 635.065 393.109 635.065H523.91C525.99 635.065 527.676 636.751 527.676 638.829C527.676 640.909 525.99 642.595 523.91 642.595Z" fill="#C77AE3"/>
<path d="M443.921 669.699H393.109C391.029 669.699 389.344 668.012 389.344 665.933C389.344 663.853 391.029 662.169 393.109 662.169H443.921C446.001 662.169 447.686 663.853 447.686 665.933C447.686 668.012 446.001 669.699 443.921 669.699Z" fill="#C77AE3"/>
<path d="M523.028 669.699H458.061C455.982 669.699 454.297 668.012 454.297 665.933C454.297 663.853 455.982 662.169 458.061 662.169H523.028C525.108 662.169 526.793 663.853 526.793 665.933C526.793 668.012 525.108 669.699 523.028 669.699Z" fill="#C77AE3"/>
<path d="M360.05 645.094C356.267 650.376 352.484 655.659 348.701 660.942C346.069 658.47 343.436 655.999 340.804 653.527C339.219 655.544 337.632 657.563 336.047 659.581C340.512 662.533 344.975 665.486 349.44 668.438C355.138 662.314 360.838 656.191 366.536 650.067C364.374 648.409 362.212 646.751 360.05 645.094Z" fill="white"/>
<path d="M366.373 599.176H332.93C326.357 599.176 321.027 593.846 321.027 587.274V562.296C321.027 555.723 326.357 550.394 332.93 550.394H366.373C372.946 550.394 378.275 555.723 378.275 562.296V587.274C378.275 593.846 372.946 599.176 366.373 599.176Z" fill="#C77AE3"/>
<path d="M523.91 562.552H393.109C391.029 562.552 389.344 560.866 389.344 558.786C389.344 556.708 391.029 555.022 393.109 555.022H523.91C525.99 555.022 527.676 556.708 527.676 558.786C527.676 560.866 525.99 562.552 523.91 562.552Z" fill="#C77AE3"/>
<path d="M443.921 589.656H393.109C391.029 589.656 389.344 587.971 389.344 585.891C389.344 583.812 391.029 582.127 393.109 582.127H443.921C446.001 582.127 447.686 583.812 447.686 585.891C447.686 587.971 446.001 589.656 443.921 589.656Z" fill="#C77AE3"/>
<path d="M523.028 589.656H458.061C455.982 589.656 454.297 587.971 454.297 585.891C454.297 583.812 455.982 582.127 458.061 582.127H523.028C525.108 582.127 526.793 583.812 526.793 585.891C526.793 587.971 525.108 589.656 523.028 589.656Z" fill="#C77AE3"/>
<path d="M358.408 565.753C354.626 571.034 350.844 576.317 347.061 581.6C344.428 579.129 341.796 576.657 339.164 574.186C337.577 576.204 335.992 578.223 334.406 580.241C338.87 583.193 343.334 586.145 347.798 589.097C353.497 582.973 359.196 576.849 364.896 570.727C362.733 569.068 360.572 567.41 358.408 565.753Z" fill="white"/>
<path d="M305.394 216.388C305.394 221.568 301.194 225.768 296.014 225.768C290.834 225.768 286.633 221.568 286.633 216.388C286.633 211.208 290.834 207.008 296.014 207.008C301.194 207.008 305.394 211.208 305.394 216.388Z" fill="white"/>
<path d="M339.018 216.388C339.018 221.568 334.818 225.768 329.638 225.768C324.458 225.768 320.258 221.568 320.258 216.388C320.258 211.208 324.458 207.008 329.638 207.008C334.818 207.008 339.018 211.208 339.018 216.388Z" fill="white"/>
<path d="M372.639 216.388C372.639 221.568 368.44 225.768 363.259 225.768C358.078 225.768 353.879 221.568 353.879 216.388C353.879 211.208 358.078 207.008 363.259 207.008C368.44 207.008 372.639 211.208 372.639 216.388Z" fill="white"/>
<path d="M553.61 223.372H463.699C459.843 223.372 456.715 220.245 456.715 216.388C456.715 212.531 459.843 209.403 463.699 209.403H553.61C557.467 209.403 560.593 212.531 560.593 216.388C560.593 220.245 557.467 223.372 553.61 223.372Z" fill="white"/>
<path d="M1016.48 223.844H720.498C714.314 223.844 709.301 228.857 709.301 235.04V729.978C709.301 736.162 714.314 741.176 720.498 741.176H1016.48C1022.67 741.176 1027.68 736.162 1027.68 729.978V235.04C1027.68 228.857 1022.67 223.844 1016.48 223.844Z" fill="#A344C5"/>
<path d="M719.051 721.288V284.944C719.051 279.347 723.588 274.81 729.185 274.81H1007.79C1013.39 274.81 1017.92 279.347 1017.92 284.944V721.29C1017.92 726.887 1013.39 731.423 1007.79 731.423H729.185C723.588 731.423 719.051 726.886 719.051 721.288Z" fill="white"/>
<path d="M824.45 535.959C824.974 535.456 824.694 534.572 823.976 534.461L820.039 533.857C819.754 533.813 819.51 533.632 819.384 533.372L817.65 529.785C817.335 529.133 816.407 529.125 816.08 529.773L814.29 533.332C814.159 533.589 813.911 533.765 813.626 533.805L809.679 534.345C808.96 534.444 808.667 535.324 809.182 535.835L812.012 538.639C812.216 538.84 812.307 539.132 812.256 539.415L811.552 543.336C811.423 544.049 812.17 544.601 812.814 544.269L816.355 542.444C816.611 542.312 816.915 542.313 817.17 542.451L820.682 544.333C821.32 544.675 822.074 544.136 821.959 543.42L821.316 539.488C821.27 539.204 821.367 538.916 821.574 538.716L824.45 535.959Z" fill="#C77AE3"/>
<path d="M850.282 535.959C850.805 535.456 850.526 534.572 849.809 534.461L845.872 533.857C845.586 533.813 845.342 533.632 845.217 533.372L843.482 529.785C843.168 529.133 842.238 529.125 841.912 529.773L840.121 533.332C839.992 533.589 839.742 533.765 839.458 533.805L835.512 534.345C834.793 534.444 834.498 535.324 835.014 535.835L837.845 538.639C838.049 538.84 838.14 539.132 838.089 539.415L837.384 543.336C837.256 544.049 838.002 544.601 838.646 544.269L842.188 542.444C842.444 542.312 842.748 542.313 843.002 542.451L846.513 544.333C847.152 544.675 847.906 544.136 847.79 543.42L847.149 539.488C847.102 539.204 847.198 538.916 847.406 538.716L850.282 535.959Z" fill="#C77AE3"/>
<path d="M876.118 535.959C876.641 535.456 876.361 534.572 875.645 534.461L871.708 533.857C871.422 533.813 871.178 533.632 871.053 533.372L869.318 529.785C869.002 529.133 868.074 529.125 867.748 529.773L865.957 533.332C865.826 533.589 865.578 533.765 865.294 533.805L861.348 534.345C860.629 534.444 860.334 535.324 860.85 535.835L863.68 538.639C863.884 538.84 863.976 539.132 863.925 539.415L863.22 543.336C863.09 544.049 863.837 544.601 864.482 544.269L868.022 542.444C868.28 542.312 868.584 542.313 868.838 542.451L872.349 544.333C872.988 544.675 873.742 544.136 873.626 543.42L872.985 539.488C872.938 539.204 873.034 538.916 873.242 538.716L876.118 535.959Z" fill="#C77AE3"/>
<path d="M901.951 535.959C902.473 535.456 902.193 534.572 901.476 534.461L897.539 533.857C897.255 533.813 897.011 533.632 896.884 533.372L895.151 529.785C894.835 529.133 893.907 529.125 893.58 529.773L891.789 533.332C891.659 533.589 891.411 533.765 891.127 533.805L887.179 534.345C886.46 534.444 886.167 535.324 886.683 535.835L889.512 538.639C889.716 538.84 889.808 539.132 889.756 539.415L889.052 543.336C888.923 544.049 889.669 544.601 890.313 544.269L893.855 542.444C894.112 542.312 894.415 542.313 894.671 542.451L898.181 544.333C898.82 544.675 899.575 544.136 899.459 543.42L898.816 539.488C898.771 539.204 898.867 538.916 899.073 538.716L901.951 535.959Z" fill="#C77AE3"/>
<path d="M927.787 535.959C928.309 535.456 928.031 534.572 927.313 534.461L923.376 533.857C923.091 533.813 922.847 533.632 922.721 533.372L920.987 529.785C920.672 529.133 919.743 529.125 919.417 529.773L917.625 533.332C917.496 533.589 917.248 533.765 916.963 533.805L913.016 534.345C912.296 534.444 912.003 535.324 912.519 535.835L915.349 538.639C915.553 538.84 915.644 539.132 915.593 539.415L914.889 543.336C914.76 544.049 915.507 544.601 916.151 544.269L919.692 542.444C919.948 542.312 920.252 542.313 920.507 542.451L924.019 544.333C924.657 544.675 925.411 544.136 925.296 543.42L924.653 539.488C924.607 539.204 924.703 538.916 924.911 538.716L927.787 535.959Z" fill="#C77AE3"/>
<path d="M901.605 492.419H773.493C771.699 492.419 770.246 490.965 770.246 489.172V488.087C770.246 486.293 771.699 484.84 773.493 484.84H901.606C903.399 484.84 904.851 486.293 904.851 488.087V489.172C904.851 490.965 903.398 492.419 901.605 492.419Z" fill="#C77AE3"/>
<path d="M963.481 492.419H924.133C922.341 492.419 920.887 490.965 920.887 489.172V488.087C920.887 486.293 922.341 484.84 924.133 484.84H963.481C965.275 484.84 966.728 486.293 966.728 488.087V489.172C966.728 490.965 965.275 492.419 963.481 492.419Z" fill="#C77AE3"/>
<path d="M837.037 514.644H774.035C771.943 514.644 770.246 512.948 770.246 510.855C770.246 508.763 771.943 507.065 774.035 507.065H837.037C839.129 507.065 840.826 508.763 840.826 510.855C840.826 512.948 839.129 514.644 837.037 514.644Z" fill="#C77AE3"/>
<path d="M962.941 514.644H852.522C850.429 514.644 848.734 512.948 848.734 510.855C848.734 508.763 850.429 507.065 852.522 507.065H962.941C965.034 507.065 966.73 508.763 966.73 510.855C966.73 512.948 965.034 514.644 962.941 514.644Z" fill="#C77AE3"/>
<path d="M810.509 713.291H777.065C770.492 713.291 765.164 707.961 765.164 701.389V676.411C765.164 669.837 770.492 664.509 777.065 664.509H810.509C817.081 664.509 822.409 669.837 822.409 676.411V701.389C822.409 707.961 817.081 713.291 810.509 713.291Z" fill="#C77AE3"/>
<path d="M968.047 674.729H837.244C835.166 674.729 833.48 673.044 833.48 670.964C833.48 668.885 835.166 667.2 837.244 667.2H968.047C970.127 667.2 971.812 668.885 971.812 670.964C971.812 673.044 970.127 674.729 968.047 674.729Z" fill="#C77AE3"/>
<path d="M888.059 701.832H837.244C835.166 701.832 833.48 700.147 833.48 698.068C833.48 695.988 835.166 694.303 837.244 694.303H888.059C890.138 694.303 891.823 695.988 891.823 698.068C891.823 700.147 890.138 701.832 888.059 701.832Z" fill="#C77AE3"/>
<path d="M967.164 701.832H902.198C900.119 701.832 898.434 700.147 898.434 698.068C898.434 695.988 900.119 694.303 902.198 694.303H967.164C969.243 694.303 970.93 695.988 970.93 698.068C970.93 700.147 969.243 701.832 967.164 701.832Z" fill="#C77AE3"/>
<path d="M804.185 677.228C800.405 682.51 796.622 687.792 792.84 693.075C790.206 690.604 787.573 688.132 784.941 685.662C783.354 687.679 781.769 689.698 780.184 691.716C784.648 694.668 789.113 697.62 793.576 700.572C799.276 694.448 804.974 688.324 810.674 682.202C808.512 680.543 806.349 678.886 804.185 677.228Z" fill="white"/>
<path d="M810.509 631.311H777.065C770.492 631.311 765.164 625.981 765.164 619.409V594.431C765.164 587.857 770.492 582.529 777.065 582.529H810.509C817.081 582.529 822.409 587.857 822.409 594.431V619.409C822.409 625.981 817.081 631.311 810.509 631.311Z" fill="#C77AE3"/>
<path d="M968.047 594.687H837.244C835.166 594.687 833.48 593.001 833.48 590.923C833.48 588.843 835.166 587.157 837.244 587.157H968.047C970.127 587.157 971.812 588.843 971.812 590.923C971.812 593.001 970.127 594.687 968.047 594.687Z" fill="#C77AE3"/>
<path d="M888.059 621.789H837.244C835.166 621.789 833.48 620.104 833.48 618.025C833.48 615.946 835.166 614.26 837.244 614.26H888.059C890.138 614.26 891.823 615.946 891.823 618.025C891.823 620.104 890.138 621.789 888.059 621.789Z" fill="#C77AE3"/>
<path d="M967.164 621.789H902.198C900.119 621.789 898.434 620.104 898.434 618.025C898.434 615.946 900.119 614.26 902.198 614.26H967.164C969.243 614.26 970.93 615.946 970.93 618.025C970.93 620.104 969.243 621.789 967.164 621.789Z" fill="#C77AE3"/>
<path d="M802.544 597.888C798.763 603.171 794.98 608.452 791.198 613.735C788.566 611.263 785.932 608.792 783.299 606.32C781.714 608.339 780.128 610.357 778.543 612.375C783.007 615.328 787.471 618.28 791.935 621.232C797.634 615.108 803.334 608.984 809.032 602.861C806.87 601.203 804.707 599.545 802.544 597.888Z" fill="white"/>
<path d="M787.244 305.437C779.784 305.437 773.71 311.508 773.71 318.971V448.789C773.71 456.252 779.784 462.323 787.244 462.323H949.733C957.195 462.323 963.267 456.252 963.267 448.789V318.971C963.267 311.508 957.195 305.437 949.733 305.437H787.244ZM949.733 469.249H787.244C775.962 469.249 766.785 460.071 766.785 448.789V318.971C766.785 307.689 775.962 298.511 787.244 298.511H949.733C961.015 298.511 970.192 307.689 970.192 318.971V448.789C970.192 460.071 961.015 469.249 949.733 469.249Z" fill="#C77AE3"/>
<path d="M827.319 402.589C823.312 399.9 821.12 392.796 824.564 386.007C829.502 376.279 831.864 370.113 832.208 355.648C832.684 335.58 838.562 327.487 838.811 327.152L839.526 327.685C839.467 327.765 833.57 335.927 833.1 355.671C832.752 370.316 830.359 376.56 825.359 386.411C822.135 392.764 824.126 399.371 827.816 401.848L827.319 402.589Z" fill="#30334D"/>
<path d="M909.086 384.163C900.792 363.961 909.084 351.899 906.408 337.077C904.362 325.739 894.442 318.913 883.732 322.117C883.732 322.117 876.474 314.335 866.252 313.771C843.419 312.511 833.21 329.36 834.287 345.265C836.844 383.076 824.222 384.476 824.995 396.131C825.882 409.497 837.764 407.857 846.435 406.54C865.11 403.705 868.632 404.057 888.514 406.791C907.564 409.411 919.616 409.804 909.086 384.163Z" fill="#30334D"/>
<path d="M911.068 429.023C900.26 435.504 884.712 439.575 867.427 439.575C851.231 439.575 836.556 436.004 825.883 430.209C834.129 421.209 845.429 413.964 846.844 413.071H846.848L847.005 413.008C852.851 410.707 857.04 409.497 857.04 409.497H880.143C880.143 409.497 884.591 410.764 890.704 413.173C891.347 413.424 892.003 413.687 892.68 413.968C896.759 416.06 904.753 421.888 911.068 429.023Z" fill="#FFD0D0"/>
<path d="M918.998 454.056H817.977C815.562 454.056 813.695 451.94 813.973 449.541C814.154 447.979 814.354 446.585 814.581 445.429C819.125 421.999 844.721 413.673 846.85 413.035L846.957 413L846.993 412.981L847.01 413.017C848.891 417.011 851.217 420.241 853.845 422.727C854.287 423.152 854.731 423.543 855.193 423.916C855.635 424.307 856.098 424.644 856.559 424.981C857.501 425.637 858.459 426.224 859.435 426.721C870.243 432.205 883.451 427.555 890.71 413.177C890.887 413.213 891.101 413.265 891.367 413.337C897.101 414.775 920.513 423.419 922.678 445.429C922.797 446.593 922.911 448.072 923.019 449.759C923.169 452.083 921.325 454.056 918.998 454.056Z" fill="#D94559"/>
<path d="M880.142 409.605L868.591 413.171L857.039 409.605L860.53 381.511H875.59L880.142 409.605Z" fill="#FFD0D0"/>
<path d="M880.142 409.605C880.142 412.631 876.399 419.433 868.723 419.433C861.047 419.433 857.039 412.631 857.039 409.605H880.142Z" fill="#FFD0D0"/>
<path d="M880.144 409.605C877.029 405.012 876.869 394.069 873.193 394.069C872.914 394.069 872.616 394.133 872.294 394.265C871.156 394.737 869.762 394.913 868.312 394.913C863.946 394.913 859.066 393.311 859.066 393.311L859.396 390.66C864.457 392.363 868.528 392.451 868.528 392.451C868.528 392.451 872.305 392.369 877.104 390.843L880.144 409.605Z" fill="#F5B8B8"/>
<path d="M904.176 358.2C902.003 352.037 894.968 354.867 894.968 354.867C894.949 351.795 895.356 321.568 868.525 320.865C841.705 321.568 840.96 356.159 840.96 356.159C838.005 353.919 833.979 353.343 832.875 358.2C831.041 366.26 841.153 371.512 841.153 371.512C846.267 391.964 868.525 392.451 868.525 392.451C868.525 392.451 890.784 391.964 895.896 371.512C895.896 371.512 906.924 365.996 904.176 358.2Z" fill="#FFD0D0"/>
<path d="M843.527 366.577C843.324 355.001 852.156 344.791 852.156 344.791C852.156 344.791 871.375 331.081 878.135 331.081C879.58 331.081 880.456 331.708 880.453 333.228C880.436 341.863 875.646 350.632 862.074 353.796C848.5 356.961 843.527 366.577 843.527 366.577Z" fill="#F5B8B8"/>
<path d="M840.961 356.159C840.961 356.159 843.314 363.428 843.525 366.577C843.525 366.577 846.805 357.628 853.603 353.14C860.102 348.849 876.095 345.265 878.773 332.557C878.773 332.557 890.093 349.601 891.607 364.059C891.607 364.059 896.801 354.664 896.803 346.053C896.806 333.665 886.655 318.705 868.634 318.916C850.614 319.125 837.446 332.892 840.961 356.159Z" fill="#30334D"/>
<path d="M906.213 345.376L905.348 345.156C905.38 345.028 908.496 332.227 900.351 324.247C892.947 316.995 881.589 321.985 881.476 322.036L881.109 321.224C881.229 321.169 893.131 315.927 900.975 323.609C909.491 331.952 906.245 345.243 906.213 345.376Z" fill="#30334D"/>
<path d="M909.853 405.373L909.582 404.524C911.246 403.995 912.45 402.825 913.16 401.048C914.634 397.352 913.683 391.669 910.678 386.215C908.147 381.627 904.351 369.533 904.191 369.02L905.043 368.755C905.082 368.879 908.973 381.275 911.46 385.784C914.59 391.465 915.559 397.441 913.989 401.379C913.186 403.388 911.757 404.769 909.853 405.373Z" fill="#30334D"/>
<path d="M845.309 361.281L845.122 361.239C844.899 361.135 844.801 360.872 844.905 360.649C844.999 360.441 847.371 355.536 858.934 351.977C880.15 345.449 878.353 332.756 878.333 332.628C878.294 332.385 878.459 332.156 878.701 332.117C878.942 332.079 879.174 332.243 879.214 332.485C879.237 332.625 879.742 335.965 877.501 340.172C875.455 344.005 870.621 349.316 859.195 352.832C848.075 356.253 845.737 360.977 845.714 361.024C845.637 361.185 845.477 361.281 845.309 361.281Z" fill="#30334D"/>
<path d="M894.36 417.672C894.36 420.407 892.143 422.624 889.408 422.624C888.467 422.624 887.588 422.356 886.835 421.896C887.213 422.597 887.427 423.4 887.427 424.248C887.427 426.987 885.209 429.205 882.475 429.205C880.917 429.205 879.525 428.477 878.62 427.353C878.679 427.661 878.713 427.983 878.713 428.312C878.713 431.048 876.496 433.265 873.761 433.265C871.351 433.265 869.344 431.543 868.903 429.263C868.367 431.423 866.421 433.024 864.097 433.024C861.361 433.024 859.144 430.807 859.144 428.072C859.144 427.644 859.207 427.228 859.309 426.836C858.4 427.996 856.993 428.745 855.404 428.745C852.671 428.745 850.453 426.528 850.453 423.793C850.453 422.851 850.72 421.977 851.176 421.228C850.465 421.616 849.653 421.839 848.789 421.839C846.053 421.839 843.836 419.621 843.836 416.887C843.836 415.753 844.215 414.708 844.857 413.875C846.191 413.276 846.991 412.981 846.991 412.981C857.039 434.399 880.141 434.081 890.703 413.169C891.072 413.245 891.595 413.388 892.245 413.611C893.527 414.508 894.36 415.993 894.36 417.672Z" fill="white"/>
<path d="M749.533 248.523C749.533 253.703 745.335 257.903 740.153 257.903C734.972 257.903 730.773 253.703 730.773 248.523C730.773 243.341 734.972 239.143 740.153 239.143C745.335 239.143 749.533 243.341 749.533 248.523Z" fill="white"/>
<path d="M783.155 248.523C783.155 253.703 778.956 257.903 773.775 257.903C768.595 257.903 764.395 253.703 764.395 248.523C764.395 243.341 768.595 239.143 773.775 239.143C778.956 239.143 783.155 243.341 783.155 248.523Z" fill="white"/>
<path d="M816.781 248.523C816.781 253.703 812.58 257.903 807.401 257.903C802.22 257.903 798.02 253.703 798.02 248.523C798.02 243.341 802.22 239.143 807.401 239.143C812.58 239.143 816.781 243.341 816.781 248.523Z" fill="white"/>
<path d="M997.75 255.507H907.841C903.982 255.507 900.855 252.38 900.855 248.523C900.855 244.665 903.982 241.537 907.841 241.537H997.75C1001.61 241.537 1004.74 244.665 1004.74 248.523C1004.74 252.38 1001.61 255.507 997.75 255.507Z" fill="white"/>
<path d="M791.099 70.8173H495.115C488.931 70.8173 483.918 75.8293 483.918 82.0133V576.952C483.918 583.135 488.931 588.148 495.115 588.148H791.099C797.285 588.148 802.295 583.135 802.295 576.952V82.0133C802.295 75.8293 797.285 70.8173 791.099 70.8173Z" fill="#A344C5"/>
<path d="M493.672 568.261V131.917C493.672 126.32 498.209 121.783 503.805 121.783H782.409C788.008 121.783 792.544 126.32 792.544 131.917V568.261C792.544 573.859 788.008 578.396 782.411 578.396H503.805C498.209 578.396 493.672 573.859 493.672 568.261Z" fill="white"/>
<path d="M599.068 382.931C599.591 382.428 599.311 381.544 598.595 381.435L594.658 380.829C594.372 380.785 594.128 380.604 594.003 380.345L592.268 376.759C591.952 376.105 591.024 376.097 590.698 376.745L588.906 380.304C588.778 380.561 588.528 380.737 588.243 380.777L584.296 381.317C583.578 381.417 583.284 382.296 583.799 382.807L586.628 385.611C586.835 385.813 586.926 386.104 586.875 386.388L586.17 390.308C586.042 391.023 586.788 391.573 587.432 391.241L590.972 389.416C591.23 389.284 591.534 389.287 591.788 389.423L595.298 391.305C595.938 391.648 596.692 391.109 596.575 390.393L595.935 386.461C595.888 386.176 595.984 385.888 596.192 385.688L599.068 382.931Z" fill="#C77AE3"/>
<path d="M624.904 382.931C625.427 382.428 625.147 381.544 624.431 381.435L620.492 380.829C620.208 380.785 619.963 380.604 619.838 380.345L618.104 376.759C617.788 376.105 616.86 376.097 616.534 376.745L614.742 380.304C614.612 380.561 614.364 380.737 614.079 380.777L610.132 381.317C609.414 381.417 609.12 382.296 609.635 382.807L612.464 385.611C612.67 385.813 612.762 386.104 612.711 386.388L612.006 390.308C611.876 391.023 612.623 391.573 613.267 391.241L616.808 389.416C617.066 389.284 617.37 389.287 617.624 389.423L621.134 391.305C621.774 391.648 622.528 391.109 622.411 390.393L621.77 386.461C621.724 386.176 621.82 385.888 622.028 385.688L624.904 382.931Z" fill="#C77AE3"/>
<path d="M650.736 382.931C651.258 382.428 650.98 381.544 650.262 381.435L646.325 380.829C646.041 380.785 645.794 380.604 645.67 380.345L643.936 376.759C643.621 376.105 642.692 376.097 642.366 376.745L640.573 380.304C640.445 380.561 640.197 380.737 639.91 380.777L635.964 381.317C635.245 381.417 634.953 382.296 635.466 382.807L638.297 385.611C638.502 385.813 638.594 386.104 638.542 386.388L637.838 390.308C637.709 391.023 638.456 391.573 639.1 391.241L642.641 389.416C642.897 389.284 643.201 389.287 643.456 389.423L646.966 391.305C647.606 391.648 648.36 391.109 648.244 390.393L647.602 386.461C647.556 386.176 647.653 385.888 647.86 385.688L650.736 382.931Z" fill="#C77AE3"/>
<path d="M676.572 382.931C677.095 382.428 676.816 381.544 676.099 381.435L672.162 380.829C671.876 380.785 671.631 380.604 671.507 380.345L669.772 376.759C669.458 376.105 668.528 376.097 668.203 376.745L666.41 380.304C666.282 380.561 666.032 380.737 665.747 380.777L661.8 381.317C661.082 381.417 660.788 382.296 661.303 382.807L664.134 385.611C664.339 385.813 664.43 386.104 664.379 386.388L663.674 390.308C663.546 391.023 664.292 391.573 664.936 391.241L668.476 389.416C668.734 389.284 669.038 389.287 669.292 389.423L672.802 391.305C673.443 391.648 674.196 391.109 674.079 390.393L673.439 386.461C673.392 386.176 673.488 385.888 673.696 385.688L676.572 382.931Z" fill="#C77AE3"/>
<path d="M702.404 382.931C702.927 382.428 702.647 381.544 701.931 381.435L697.994 380.829C697.708 380.785 697.463 380.604 697.338 380.345L695.604 376.759C695.288 376.105 694.36 376.097 694.034 376.745L692.242 380.304C692.112 380.561 691.864 380.737 691.579 380.777L687.632 381.317C686.914 381.417 686.62 382.296 687.135 382.807L689.964 385.611C690.17 385.813 690.262 386.104 690.211 386.388L689.506 390.308C689.378 391.023 690.123 391.573 690.768 391.241L694.308 389.416C694.566 389.284 694.87 389.287 695.124 389.423L698.634 391.305C699.274 391.648 700.028 391.109 699.911 390.393L699.271 386.461C699.224 386.176 699.32 385.888 699.528 385.688L702.404 382.931Z" fill="#C77AE3"/>
<path d="M676.226 339.392H548.114C546.321 339.392 544.867 337.937 544.867 336.144V335.06C544.867 333.267 546.321 331.812 548.114 331.812H676.226C678.018 331.812 679.471 333.267 679.471 335.06V336.144C679.471 337.937 678.018 339.392 676.226 339.392Z" fill="#C77AE3"/>
<path d="M738.102 339.392H698.753C696.961 339.392 695.508 337.937 695.508 336.144V335.06C695.508 333.267 696.961 331.812 698.753 331.812H738.102C739.896 331.812 741.349 333.267 741.349 335.06V336.144C741.349 337.937 739.896 339.392 738.102 339.392Z" fill="#C77AE3"/>
<path d="M611.658 361.617H548.657C546.563 361.617 544.867 359.92 544.867 357.828C544.867 355.735 546.563 354.039 548.657 354.039H611.658C613.75 354.039 615.447 355.735 615.447 357.828C615.447 359.92 613.75 361.617 611.658 361.617Z" fill="#C77AE3"/>
<path d="M737.56 361.617H627.14C625.048 361.617 623.352 359.92 623.352 357.828C623.352 355.735 625.048 354.039 627.14 354.039H737.56C739.652 354.039 741.349 355.735 741.349 357.828C741.349 359.92 739.652 361.617 737.56 361.617Z" fill="#C77AE3"/>
<path d="M585.127 560.263H551.683C545.111 560.263 539.781 554.935 539.781 548.361V523.383C539.781 516.811 545.111 511.481 551.683 511.481H585.127C591.7 511.481 597.028 516.811 597.028 523.383V548.361C597.028 554.935 591.7 560.263 585.127 560.263Z" fill="#C77AE3"/>
<path d="M742.668 521.701H611.866C609.787 521.701 608.102 520.016 608.102 517.937C608.102 515.857 609.787 514.172 611.866 514.172H742.668C744.747 514.172 746.432 515.857 746.432 517.937C746.432 520.016 744.747 521.701 742.668 521.701Z" fill="#C77AE3"/>
<path d="M662.68 548.805H611.866C609.787 548.805 608.102 547.119 608.102 545.04C608.102 542.961 609.787 541.276 611.866 541.276H662.68C664.758 541.276 666.444 542.961 666.444 545.04C666.444 547.119 664.758 548.805 662.68 548.805Z" fill="#C77AE3"/>
<path d="M741.783 548.805H676.815C674.737 548.805 673.051 547.119 673.051 545.04C673.051 542.961 674.737 541.276 676.815 541.276H741.783C743.861 541.276 745.547 542.961 745.547 545.04C745.547 547.119 743.861 548.805 741.783 548.805Z" fill="#C77AE3"/>
<path d="M578.807 524.2C575.025 529.483 571.242 534.765 567.462 540.048C564.827 537.576 562.195 535.105 559.563 532.633C557.977 534.651 556.391 536.671 554.805 538.688C559.27 541.64 563.734 544.592 568.198 547.544C573.898 541.421 579.597 535.297 585.295 529.173C583.133 527.516 580.97 525.859 578.807 524.2Z" fill="white"/>
<path d="M585.127 478.283H551.683C545.111 478.283 539.781 472.955 539.781 466.381V441.403C539.781 434.831 545.111 429.501 551.683 429.501H585.127C591.7 429.501 597.028 434.831 597.028 441.403V466.381C597.028 472.955 591.7 478.283 585.127 478.283Z" fill="#C77AE3"/>
<path d="M742.668 441.66H611.866C609.787 441.66 608.102 439.973 608.102 437.895C608.102 435.815 609.787 434.129 611.866 434.129H742.668C744.747 434.129 746.432 435.815 746.432 437.895C746.432 439.973 744.747 441.66 742.668 441.66Z" fill="#C77AE3"/>
<path d="M662.68 468.763H611.866C609.787 468.763 608.102 467.077 608.102 464.999C608.102 462.919 609.787 461.233 611.866 461.233H662.68C664.758 461.233 666.444 462.919 666.444 464.999C666.444 467.077 664.758 468.763 662.68 468.763Z" fill="#C77AE3"/>
<path d="M741.783 468.763H676.815C674.737 468.763 673.051 467.077 673.051 464.999C673.051 462.919 674.737 461.233 676.815 461.233H741.783C743.861 461.233 745.547 462.919 745.547 464.999C745.547 467.077 743.861 468.763 741.783 468.763Z" fill="#C77AE3"/>
<path d="M577.163 444.86C573.38 450.143 569.598 455.424 565.815 460.707C563.183 458.236 560.551 455.764 557.918 453.293C556.332 455.311 554.745 457.329 553.16 459.348C557.625 462.3 562.088 465.252 566.554 468.204C572.252 462.081 577.951 455.957 583.649 449.833C581.487 448.175 579.325 446.517 577.163 444.86Z" fill="white"/>
<path d="M561.862 152.409C554.401 152.409 548.329 158.481 548.329 165.944V295.761C548.329 303.224 554.401 309.295 561.862 309.295H724.35C731.812 309.295 737.885 303.224 737.885 295.761V165.944C737.885 158.481 731.812 152.409 724.35 152.409H561.862ZM724.35 316.221H561.862C550.581 316.221 541.402 307.043 541.402 295.761V165.944C541.402 154.661 550.581 145.484 561.862 145.484H724.35C735.632 145.484 744.81 154.661 744.81 165.944V295.761C744.81 307.043 735.632 316.221 724.35 316.221Z" fill="#C77AE3"/>
<path d="M656.312 161.704C637.385 157.344 629.15 168.272 629.15 168.272C623.166 165.633 615.468 170.255 612.504 174.933C606.53 184.356 609.204 196.855 612.46 209.524L667.42 220.611C670.602 213.309 676.893 206.756 678.217 198.861C681.405 179.855 671.36 165.169 656.312 161.704Z" fill="#30334D"/>
<path d="M698.189 301.028H588.026C585.654 301.028 583.788 298.98 584.01 296.619C584.525 291.151 585.254 286.257 586.238 281.485C589.197 267.355 619.757 257.819 624.286 256.479C624.657 256.368 625.032 256.316 625.418 256.316H660.549C661.006 256.316 661.458 256.392 661.889 256.545C666.638 258.231 695.692 268.991 700.122 281.485C701.225 284.553 701.904 289.859 702.218 296.833C702.321 299.12 700.478 301.028 698.189 301.028Z" fill="#FFB769"/>
<path d="M654.123 252.651L642.967 256.093L631.812 252.651L635.183 225.519H649.727L654.123 252.651Z" fill="#FFD0D0"/>
<path d="M654.123 252.651C654.123 255.572 650.507 262.141 643.095 262.141C635.683 262.141 631.812 255.572 631.812 252.651H654.123Z" fill="#FFD0D0"/>
<path d="M652.974 256.316H652.965C652.996 256.261 653.025 256.208 653.054 256.155C653.028 256.208 653.001 256.263 652.974 256.316Z" fill="#F5E2E2"/>
<path d="M647.832 261.124C650.235 260.008 651.941 258.132 652.965 256.316H652.975C651.176 259.847 648.135 261.015 647.832 261.124Z" fill="#F5A25D"/>
<path d="M654.122 252.651H649.438C649.85 246.964 649.355 240.736 646.902 240.736C646.754 240.736 646.596 240.759 646.432 240.807C644.808 241.279 643.226 241.46 641.752 241.459C637.016 241.459 633.434 239.596 633.434 239.596L633.791 236.713C638.9 238.823 642.903 238.823 642.903 238.823C642.903 238.823 646.684 238.823 651.574 236.927L654.122 252.651Z" fill="#F5B8B8"/>
<path d="M647.805 261.132C648.538 259.712 649.174 256.293 649.438 252.651H654.122C653.915 254.013 653.533 255.172 653.053 256.155C653.023 256.208 652.994 256.261 652.963 256.316C651.939 258.132 650.233 260.008 647.83 261.124C647.814 261.129 647.805 261.132 647.805 261.132Z" fill="#F5B8B8"/>
<path d="M675.937 205.236C673.839 199.284 668.443 202.527 668.443 202.527C668.423 199.56 668.816 170.371 642.905 169.691C617.005 170.369 616.285 203.773 616.285 203.773C613.432 201.612 609.544 201.053 608.476 205.747C606.707 213.529 616.471 218.6 616.471 218.6C624.841 238.823 642.905 238.823 642.905 238.823C642.905 238.823 661.237 238.823 669.339 218.6C669.339 218.6 678.591 212.764 675.937 205.236Z" fill="#FFD0D0"/>
<path d="M624.846 256.309L631.862 252.651L643.094 262.143L635.003 272.92C635.003 272.92 624.547 265.317 624.846 256.309Z" fill="white"/>
<path d="M661.228 256.309L654.21 252.651L643.094 262.143L651.07 272.92C651.07 272.92 661.524 265.317 661.228 256.309Z" fill="white"/>
<path d="M664.871 206.183C662.632 206.183 660.513 202.091 660.173 200.217C659.801 198.177 660.11 196.732 651.175 196.732C650.338 196.732 649.419 196.745 648.411 196.771C648.273 196.775 648.137 196.776 647.999 196.776C636.538 196.776 631.812 184.301 631.812 184.301L665.139 188.559C665.139 188.559 668.799 203.561 666.153 205.692C665.729 206.033 665.298 206.183 664.871 206.183Z" fill="#F5B8B8"/>
<path d="M634.268 186.987C642.339 196.416 650.616 195.107 659.892 192.691C665.028 191.352 661.927 202.903 664.936 205.844C667.218 208.075 668.75 204.392 669.398 201.485C672.49 187.596 663.276 172.779 650.996 169.043C637.803 167.117 620.915 172.172 616.137 185.149C614.565 190.86 615.259 210.867 619.062 212.539C624.319 214.852 625.481 176.721 634.268 186.987Z" fill="#30334D"/>
<path d="M524.151 95.4946C524.151 100.676 519.951 104.875 514.771 104.875C509.589 104.875 505.391 100.676 505.391 95.4946C505.391 90.3146 509.589 86.1146 514.771 86.1146C519.951 86.1146 524.151 90.3146 524.151 95.4946Z" fill="white"/>
<path d="M557.776 95.4946C557.776 100.676 553.576 104.875 548.396 104.875C543.214 104.875 539.016 100.676 539.016 95.4946C539.016 90.3146 543.214 86.1146 548.396 86.1146C553.576 86.1146 557.776 90.3146 557.776 95.4946Z" fill="white"/>
<path d="M591.398 95.4946C591.398 100.676 587.198 104.875 582.018 104.875C576.837 104.875 572.637 100.676 572.637 95.4946C572.637 90.3146 576.837 86.1146 582.018 86.1146C587.198 86.1146 591.398 90.3146 591.398 95.4946Z" fill="white"/>
<path d="M772.367 102.48H682.458C678.601 102.48 675.473 99.352 675.473 95.4947C675.473 91.6374 678.601 88.5107 682.458 88.5107H772.367C776.226 88.5107 779.351 91.6374 779.351 95.4947C779.351 99.352 776.226 102.48 772.367 102.48Z" fill="white"/>
<path d="M962.113 1119.13H970.387V784.283H962.113V1119.13Z" fill="#C8CBE3"/>
<path d="M1176.51 1112.12V903.691H1183.52V1112.12H1200.25V1117.32H1158.64V1112.12H1176.51Z" fill="#C8CBE3"/>
<path d="M1241.04 881.978H1247.68V711.59H1241.04V881.978Z" fill="#C8CBE3"/>
<path d="M1022.54 738.148C1022.54 738.148 983.978 743.236 978.081 749.539C972.185 755.841 966.852 774.891 972.504 771.355C978.156 767.819 984.598 762.177 991.648 759.409C998.71 756.636 1002.46 763.671 1007.03 761.244C1011.59 758.819 1024.37 756.167 1024.37 756.167L1022.54 738.148Z" fill="#EBB0B0"/>
<path d="M1027.22 749.359C1027.22 749.359 994.118 744.968 986.686 749.359C979.255 753.751 968.785 770.533 975.203 768.728C981.62 766.923 989.388 763.319 996.932 762.644C1004.49 761.968 1006.11 769.771 1011.17 768.728C1016.24 767.684 1029.24 768.728 1029.24 768.728L1027.22 749.359Z" fill="#F9CBCB"/>
<path d="M1123.5 1045.39L1133.96 1073.04C1126.3 1078.91 1117.94 1082.62 1108.35 1082.54L1095.53 1055.06L1123.5 1045.39Z" fill="#F9CBCB"/>
<path d="M1096.65 1073.54C1112.56 1070.39 1120.61 1067.13 1133.6 1059.02C1128.32 1037.53 1114.67 941.481 1093.77 890.733C1126.85 861.78 1260.03 898.368 1207.83 773.441L1139.87 787.284C1143.15 801.445 1037.62 828.58 1027.77 864.833C1016.87 904.981 1068.53 1003.74 1096.65 1073.54Z" fill="#844A99"/>
<path d="M1133.96 1073.04C1140.88 1078.34 1144.68 1086.13 1145.55 1096.26L1078.97 1121.85C1064.31 1098.62 1107.51 1095.66 1108.35 1082.54C1118.09 1081.93 1126.32 1078.11 1133.96 1073.04Z" fill="#2D3E70"/>
<path d="M1022.94 1063.11L1023.04 1092.68C1013.8 1095.49 1004.67 1096.03 995.722 1092.59L993.359 1062.36L1022.94 1063.11Z" fill="#F9CBCB"/>
<path d="M987.923 1080.06C1003.93 1082.69 1012.62 1082.46 1027.62 1079.42C1030.21 1057.44 1051.13 962.716 1049.37 907.863C1073.95 898.596 1146.23 907.924 1188.72 889.895C1217.35 877.751 1225.25 854.439 1223.21 799.988L1133.39 795.124C1131.49 809.538 1018.58 829.956 996.647 860.452C972.354 894.224 986.078 1004.83 987.923 1080.06Z" fill="#844A99"/>
<path d="M1023.04 1092.68C1027.66 1100.07 1028.49 1108.7 1025.75 1118.49L954.422 1119.09C948.838 1092.19 990.327 1104.58 995.723 1092.59C1005.07 1095.44 1014.11 1094.74 1023.04 1092.68Z" fill="#2D3E70"/>
<path d="M1134.42 635.342C1108.02 658.07 1102.16 700.28 1092.33 715.776L1020.3 733.598L1023.45 757.413C1023.45 757.413 1090.47 754.885 1101.77 749.061C1113.07 743.238 1171.94 681.11 1171.94 681.11C1171.94 681.11 1169.36 605.261 1134.42 635.342Z" fill="#FFC880"/>
<path d="M1162.91 630.839C1164 630.665 1165.11 630.756 1166.16 631.119C1173.85 633.797 1206.27 647.092 1213.56 683.232C1218.29 706.665 1224.59 779.321 1226.33 800.203C1226.61 803.537 1224.43 806.593 1221.17 807.36C1188.65 815.013 1141.01 810.743 1127.61 799.341C1125.93 797.919 1125.08 795.764 1125.27 793.575C1129.59 740.321 1109.8 727.659 1113.6 668.147C1114.49 654.215 1128.2 640.844 1132.87 636.675C1133.84 635.807 1135.04 635.245 1136.32 635.041L1162.91 630.839Z" fill="#FFB769"/>
<path d="M1139.71 607.741C1149.83 609.265 1154.47 613.502 1165.99 606.04C1183.51 594.684 1194.45 559.704 1167.24 548.763C1164.72 543.868 1162.68 542.124 1155.88 541.692C1149.08 541.26 1142.76 545.149 1133.65 546.37C1124.56 547.59 1110.31 540.192 1104.39 554.592C1098.48 568.992 1119.65 576.283 1130.48 581.291C1141.29 586.299 1139.8 597.997 1139.71 607.741Z" fill="#30334D"/>
<path d="M1164.51 630.585C1155.34 643.032 1145.46 646.647 1134.42 635.343L1133.83 614.105L1133.56 605.165L1157.48 601.54L1158.76 606.912L1164.51 630.585Z" fill="#F9CBCB"/>
<path d="M1159.7 610.739C1154.87 618.747 1138.9 623.275 1134.02 620.895L1133.56 605.165L1156.08 591.424L1159.7 610.739Z" fill="#F0B4B4"/>
<path d="M1114.97 565.22C1112.45 578.293 1112.29 606.375 1124.37 614.977C1132.01 620.423 1155.81 614.26 1158.07 595.756C1163.25 590.647 1165.97 579.7 1159.89 575.841C1155.56 573.092 1152 582.635 1145.09 582.192C1142.47 582.024 1147.69 563.9 1139.33 562.165C1130.97 560.431 1123.56 568.061 1114.97 565.22Z" fill="#F9CBCB"/>
<path d="M1164.6 661.829C1131.28 679.877 1095 745.418 1095 745.418L1018.71 749.141L1019.61 774.253C1019.61 774.253 1104.07 783.445 1115.88 778.737C1127.68 774.029 1176.01 732.576 1191.13 713.397C1215.27 682.788 1190.16 647.983 1164.6 661.829Z" fill="#FFC880"/>
<path d="M811.809 795.124H1120.69V773.441H811.809V795.124Z" fill="#A5D4FF"/>
<path d="M1100.78 908.516H1252.53C1255.01 908.516 1257.03 906.505 1257.03 904.025V884.359C1257.03 881.877 1255.01 879.867 1252.53 879.867H1100.78C1098.3 879.867 1096.29 881.877 1096.29 884.359V904.025C1096.29 906.505 1098.3 908.516 1100.78 908.516Z" fill="#A5D4FF"/>
<path d="M1233.89 768.888H1254.08C1256.63 768.888 1258.69 766.824 1258.69 764.279V637.338C1258.69 634.791 1256.63 632.728 1254.08 632.728H1233.89C1231.35 632.728 1229.28 634.791 1229.28 637.338V764.279C1229.28 766.824 1231.35 768.888 1233.89 768.888Z" fill="#A5D4FF"/>
<path d="M1167.44 548.751C1175.97 548.923 1183.96 553.935 1186.77 562.2C1188.28 566.596 1187.81 571.28 1186.52 575.665C1185.4 579.476 1183.68 583.144 1181.35 586.369C1180.08 588.131 1178.64 589.769 1177.01 591.205C1175.4 592.631 1173.52 594.073 1171.48 594.789C1170.93 594.98 1170.67 594.195 1171.09 593.901C1172.67 592.845 1174.29 591.955 1175.76 590.732C1177.11 589.608 1178.32 588.351 1179.43 586.995C1181.81 584.08 1183.63 580.696 1184.88 577.159C1186.33 573.069 1187.24 568.585 1186.27 564.28C1185.41 560.461 1183.25 556.995 1180.31 554.447C1176.77 551.4 1172.07 549.663 1167.44 549.356C1167.05 549.331 1167.04 548.743 1167.44 548.751Z" fill="#C8CBE3"/>
<path d="M926.743 682.631L940.06 762.448H1021.77V773.441H941.895H934.537H929.159L914.008 682.631H926.743Z" fill="#511168"/>
<path d="M511.546 749.437C511.546 749.437 508.848 917.433 478.175 954.947C463.376 973.047 414.102 1069.9 414.102 1069.9C408.584 1070.66 403.46 1069.55 399.488 1062.95C409.526 1008.11 422.914 961.164 444.503 933.897C455.77 856.561 422.722 822.809 459.183 749.475L511.546 749.437Z" fill="#F9CBCB"/>
<path d="M524.7 749.427C537.641 830.04 532.969 875.983 522.795 960.092C522.692 960.947 522.541 961.811 522.348 962.643L492.397 1091.48L477.3 1093.57C473.495 1051 475.697 997.464 483.217 961.455C477.628 856.483 424.808 827.261 473.965 749.464L524.7 749.427Z" fill="#F9CBCB"/>
<path d="M422.962 990.017C439.832 987.922 455.209 978.189 465.936 990.452C473.784 999.398 482.853 1006.69 494.105 1010.38C498.872 1011.96 504 1012.92 509.624 1013.07C519.912 1013.33 529.072 1005.49 531.776 993.877C536.921 971.645 544.797 930.852 544.768 888.865C544.713 813.849 523.489 744.21 523.489 744.21C523.489 744.21 523.158 744.133 522.564 743.981C515.646 742.442 471.804 733.521 455.708 753.481C438.222 775.182 425.44 803.865 429.881 859.737C433.052 899.636 417.066 936.732 406.532 963.289C401.281 976.605 410.457 991.61 422.962 990.017Z" fill="#511168"/>
<path d="M512.004 619.241L530.36 658.133C530.36 658.133 530.987 657.141 532.045 655.387C539.052 644.033 565.619 600.543 572.353 583.201C577.771 569.236 578.769 533.373 577.793 509.024C577.423 499.992 576.788 492.516 575.992 488.348C575.992 488.348 587.364 477.951 576.807 472.169C566.645 466.619 573.781 450.369 569.975 449.843C566.171 449.316 564.103 471.285 564.103 471.285C564.103 471.285 558.705 465.565 556.888 467.751C554.143 470.995 563.485 488.357 563.485 488.357C562.165 492.361 560.911 496.465 559.724 500.633C553.585 522.208 549.401 545.668 547.269 570.88C535.929 582.632 524.065 599.879 512.004 619.241Z" fill="#F9CBCB"/>
<path d="M461.314 747.874L526.853 747.826C523.434 732.942 515.059 724.974 527.339 691.186C532.459 677.122 533.343 665.211 532.046 655.387C528.787 630.974 512.005 619.242 512.005 619.242L496.282 610.42L477.061 610.432L457.75 624.144C457.75 624.144 458.747 678.434 461.773 696.99C464.431 713.366 467.555 732.056 461.314 747.874Z" fill="#3E3279"/>
<path d="M450.5 758.039C480.651 773.467 490.961 756.851 513.855 756.669C515.643 756.668 517.527 756.765 519.479 756.963C526.427 757.719 532.047 751.495 530.884 744.615C527.263 723.476 528.468 700.117 533.775 668.587C534.96 661.569 536.905 654.721 539.581 648.135C541.199 644.164 543.049 640.293 545.164 636.552C555.043 618.879 567.764 594.981 572.352 583.201C577.769 569.236 578.768 533.373 577.792 509.024L559.723 500.633C553.584 522.208 549.033 543.551 545.315 570.021C536.125 579.589 527.831 593.291 518.611 608.484C514.943 614.507 507.169 616.531 501.045 613.096L496.28 610.42L477.059 610.432L457.748 624.144C457.748 624.144 458.745 678.433 461.771 696.989C464.429 713.365 456.741 742.219 450.5 758.039Z" fill="#EBCBF6"/>
<path d="M391.504 703.326C391.538 703.59 391.538 703.889 391.604 704.186C392.238 709.446 395.55 715.466 400.119 721.55C408.796 733.089 422.104 744.824 430.644 751.833C435.544 755.832 438.855 758.311 438.855 758.311C430.399 777.44 447.548 795.027 452.635 784.9C453.694 782.717 449.818 775.243 449.815 772.264C449.814 770.412 453.07 768.359 455.306 765.083C457.847 761.357 455.692 756.71 454.136 754.529C451.123 750.396 448.175 745.765 445.16 741.004C437.114 728.339 428.5 714.582 416.486 705.293C436.756 694.494 450.416 689.655 464.403 676.873L457.747 624.144C457.747 624.144 389.799 679.144 391.504 703.326Z" fill="#F9CBCB"/>
<path d="M391.504 703.327C391.538 703.591 391.538 703.889 391.604 704.187C394.454 710.041 397.336 715.928 400.119 721.551C408.796 733.089 422.104 744.824 430.644 751.833L445.16 741.004C437.114 728.339 428.5 714.583 416.486 705.293C436.756 694.495 450.416 689.655 464.403 676.873L457.747 624.144C457.747 624.144 389.799 679.144 391.504 703.327Z" fill="#EBCBF6"/>
<path d="M510.132 540.867C510.132 540.867 519.128 565.722 512.234 581.264C505.339 596.808 477.707 586.123 477.707 586.123L510.132 540.867Z" fill="#F9CBCB"/>
<path d="M492.086 587.049L496.27 610.414L477.066 610.428L477.706 586.122L492.086 587.049Z" fill="#F9CBCB"/>
<path d="M412.208 629.053C414.054 615.297 406.084 608.749 411.11 595.811C415.899 583.477 430.49 577.684 436.992 566.163C441.852 557.552 441.526 546.965 445.044 537.725C450.074 524.52 463.543 514.988 477.671 514.639C491.796 514.288 505.723 523.141 511.399 536.083C511.399 536.083 518.899 549.481 507.902 568.155C501.974 578.217 486.096 586.959 482.582 598.096C476.066 618.755 504.295 646.904 496.311 667.041C491.972 677.985 479.434 677.843 477.126 689.387C475.055 699.736 494.147 707.443 477.154 729.708C464.456 746.344 449.254 732.989 439.368 732.009C431.096 731.188 416.907 739.779 401.735 731.209C374.046 715.572 397.316 694.4 391.451 672.907C383.888 645.204 410.216 643.888 412.208 629.053Z" fill="#30334D"/>
<path d="M476.649 1086.53L474.212 1099.03C473.349 1102.44 473.105 1105.98 473.488 1109.48L474.885 1122.97L479.839 1122.93L479.399 1114.39C479.616 1112.18 482.393 1111.34 483.804 1113.05L488.427 1118.65C489.761 1121.16 492.195 1122.93 495.008 1123.33C503.597 1124.56 520.384 1125.08 521.157 1119.45C521.953 1113.66 505.667 1113.19 500.996 1106.74C496.473 1100.51 493.433 1087.04 493.433 1087.04C488.321 1089.09 482.297 1088.43 476.649 1086.53Z" fill="#2D3E70"/>
<path d="M399.489 1062.95L391.602 1072.56C389.372 1075.28 387.642 1078.38 386.498 1081.71L382.016 1094.51L386.514 1096.59L389.753 1088.67C390.89 1086.76 393.764 1087.18 394.312 1089.33L396.108 1096.37C396.248 1099.21 397.697 1101.84 400.072 1103.41C407.317 1108.18 422.284 1115.8 425.381 1111.03C428.568 1106.13 414.033 1098.77 412.552 1090.95C411.117 1083.38 414.102 1069.9 414.102 1069.9C408.602 1069.58 403.793 1067.07 399.489 1062.95Z" fill="#2D3E70"/>
<path d="M143.01 596.9L143.123 597.039C143.21 597.12 143.453 597.297 143.811 597.187L155.197 593.679C155.558 593.568 155.673 593.281 155.705 593.164C155.738 593.047 155.786 592.747 155.522 592.503L147.235 584.805C146.973 584.561 146.666 584.62 146.547 584.659C146.427 584.695 146.138 584.819 146.039 585.172L142.942 596.377C142.878 596.608 142.937 596.784 143.01 596.9ZM157.941 591.224C158.389 591.947 158.514 592.831 158.271 593.709C157.95 594.869 157.054 595.78 155.875 596.144L144.489 599.652C143.309 600.015 142.093 599.756 141.234 598.959C140.377 598.161 140.055 596.992 140.375 595.832L143.474 584.627C143.795 583.465 144.69 582.556 145.87 582.192C147.05 581.829 148.266 582.089 149.125 582.887L157.411 590.584C157.621 590.777 157.797 590.992 157.941 591.224Z" fill="#D94559"/>
<path d="M85.8011 370.876L89.7798 366.899C90.6838 365.996 90.6838 364.531 89.7798 363.628C88.8771 362.725 87.4118 362.725 86.5105 363.628L82.5304 367.607L78.5531 363.628C77.6504 362.725 76.1838 362.725 75.2825 363.628C74.3798 364.531 74.3798 365.996 75.2825 366.899L79.2611 370.876L75.2904 374.848C74.3864 375.751 74.3864 377.215 75.2904 378.117C75.7398 378.569 76.3331 378.796 76.9251 378.796C77.5171 378.796 78.1091 378.569 78.5598 378.117L82.5304 374.147L86.5025 378.117C86.9545 378.569 87.5451 378.796 88.1371 378.796C88.7291 378.796 89.3211 378.569 89.7718 378.117C90.6758 377.215 90.6758 375.751 89.7718 374.848L85.8011 370.876Z" fill="#FFB769"/>
<path d="M421.132 146.167C417.691 146.167 414.891 148.967 414.891 152.409C414.891 155.852 417.691 158.653 421.132 158.653C424.575 158.653 427.376 155.852 427.376 152.409C427.376 148.967 424.575 146.167 421.132 146.167ZM421.132 161.496C416.123 161.496 412.047 157.42 412.047 152.409C412.047 147.399 416.123 143.323 421.132 143.323C426.143 143.323 430.22 147.399 430.22 152.409C430.22 157.42 426.143 161.496 421.132 161.496Z" fill="#C77AE3"/>
<path d="M877.264 171.928L877.086 171.923C876.967 171.936 876.676 172.003 876.523 172.347L871.72 183.249C871.57 183.595 871.71 183.868 871.778 183.971C871.846 184.072 872.04 184.304 872.396 184.265L883.64 183.041C883.996 183.003 884.152 182.732 884.203 182.617C884.252 182.503 884.35 182.203 884.146 181.896L877.704 172.219C877.572 172.02 877.402 171.949 877.264 171.928ZM871.78 186.931C870.94 186.795 870.19 186.311 869.686 185.552C869.019 184.549 868.916 183.277 869.412 182.147L874.218 171.245C874.715 170.116 875.707 169.365 876.872 169.239C878.036 169.113 879.13 169.635 879.796 170.637L886.239 180.315C886.907 181.317 887.007 182.591 886.51 183.72C886.012 184.849 885.019 185.599 883.854 185.725L872.611 186.951C872.327 186.98 872.05 186.973 871.78 186.931Z" fill="#D94559"/>
<path d="M1175.28 252.512L1175.68 258.124C1175.78 259.397 1176.88 260.356 1178.16 260.265C1179.43 260.173 1180.39 259.067 1180.3 257.793L1179.9 252.181L1185.51 251.779C1186.78 251.688 1187.74 250.581 1187.66 249.308C1187.56 248.033 1186.46 247.075 1185.18 247.167L1179.56 247.568L1179.16 241.967C1179.07 240.693 1177.96 239.733 1176.7 239.825C1176.06 239.871 1175.5 240.171 1175.11 240.617C1174.72 241.065 1174.51 241.66 1174.55 242.297L1174.95 247.899L1169.35 248.301C1168.71 248.347 1168.16 248.645 1167.78 249.093C1167.38 249.54 1167.16 250.136 1167.22 250.772C1167.3 252.047 1168.4 253.005 1169.68 252.913L1175.28 252.512Z" fill="#FFB769"/>
<path d="M1114.52 456.793C1116.77 454.192 1116.49 450.241 1113.89 447.987C1111.29 445.733 1107.35 446.016 1105.09 448.617C1102.83 451.22 1103.12 455.171 1105.72 457.424C1108.32 459.679 1112.27 459.395 1114.52 456.793ZM1102.94 446.756C1106.22 442.969 1111.97 442.557 1115.76 445.837C1119.55 449.117 1119.96 454.868 1116.68 458.655C1113.4 462.443 1107.64 462.855 1103.85 459.575C1100.07 456.293 1099.66 450.544 1102.94 446.756Z" fill="#C77AE3"/>
<path d="M138.56 941.343C141.787 922.084 164.943 939.947 171.406 948.543C168.206 938.907 165.57 929.121 163.451 919.199C143.398 921.717 133.443 915.851 130.796 909.984C126.559 900.592 141.054 891.201 162.835 916.212C160.38 904.017 158.784 891.643 158.275 879.223C106.608 877.263 129.783 830.893 158.154 875.6C157.824 862.229 158.698 848.317 163.494 835.775C110.946 825.763 143.259 783.46 164.312 833.649C169.922 819.536 178.158 806.397 183.272 792.113C129.919 782.325 162.687 739.293 183.867 790.447C187.756 779.499 188.878 767.64 186.466 756.168C166.291 758.036 156.307 752.216 153.47 746.395C148.632 736.472 164.56 726.549 186.166 754.721C183.448 742.348 177.41 730.528 169.49 721.012C118.612 720.431 140.656 675.116 170.215 717.111C179.25 726.531 185.066 738.939 188.595 751.441C198.532 698.755 237.334 733.305 189.458 754.929C192.387 766.809 191.131 779.453 187.154 790.844C208.211 762.929 223.974 773.109 218.402 783.289C215.282 788.989 205.471 794.689 186.152 793.701C180.754 808.477 172.207 821.919 166.73 836.569C187.163 806.403 204.934 816.769 199.236 827.135C196.168 832.717 186.295 838.299 166.366 837.552C161.84 849.933 161.152 863.405 161.415 876.488C186.874 829.299 214.078 873.788 161.52 879.676C162.02 891.809 163.666 903.92 166.08 915.82C179.547 862.817 218.114 900.012 166.544 918.053C168.695 928.272 171.388 938.379 174.731 948.297C188.59 896.32 225.988 933.187 175.646 950.96C178.984 960.479 182.94 969.776 187.631 978.691C185.544 989.411 173.847 954.925 172.61 952.069C161.57 953.343 143.851 952.775 138.56 941.343Z" fill="#752193"/>
<path d="M144.109 1038.59C152.521 1021.98 168.517 1044.82 171.956 1054.48C171.783 1044.8 172.167 1035.15 173.061 1025.52C123.728 1016.65 152.695 975.577 173.347 1022.62C174.581 1010.83 176.648 999.109 179.716 987.661C133.249 971.184 167.527 935.572 180.636 984.328C184.137 972.065 188.889 959.651 196.82 949.599C151.84 925.545 193.281 896.235 198.171 947.9C207.288 936.651 218.52 927.033 227.237 915.487C181.461 891.407 223.521 861.561 228.252 914.14C234.905 905.283 239.297 894.807 240.364 883.68C189.261 872.763 222.016 831.851 240.501 882.277C241.548 870.244 239.413 857.769 234.909 846.856C188.971 832.16 221.816 796.899 236.679 843.511C242.224 854.655 243.989 867.601 243.644 879.984C267.673 834.857 293.16 877.337 243.44 883.404C242.728 895.049 237.988 906.199 231.129 915.436C254.041 899.021 265.768 906.307 264.035 913.592C262.569 919.752 251.485 925.911 229.405 917.752C220.292 929.664 208.691 939.467 199.539 951.243C222.476 932.973 235.476 940.448 234.081 947.921C232.933 954.071 222.044 960.22 198.929 952.035C191.289 962.016 186.832 974.083 183.352 986.064C204.908 964.955 217.891 973.241 214.736 981.527C212.555 987.257 202.657 992.987 182.541 988.996C179.547 1000.18 177.6 1011.67 176.413 1023.19C203.743 978.777 228.264 1023.6 176.2 1025.35C175.252 1035.26 174.829 1045.23 175.051 1055.21C202.447 1011.84 225.997 1056.03 175.128 1057.89C175.46 1067.5 176.416 1077.09 178.149 1086.54C173.201 1095.69 172.364 1061 172.048 1058.04C161.639 1056.06 145.672 1050.5 144.109 1038.59Z" fill="#511168"/>
<path d="M237.817 976.157C237.287 982.976 228.295 1097.47 227.463 1108.09H148.186C147.218 1096.93 137.375 983.452 136.754 976.157H237.817Z" fill="#D94559"/>
<path d="M235.337 1007.81C236.654 991.023 237.651 978.296 237.818 976.157V976.159C237.651 978.296 236.654 991.023 235.337 1007.81ZM137.547 985.337C137.542 985.276 137.537 985.216 137.531 985.156C137.537 985.217 137.542 985.275 137.547 985.337ZM136.935 978.253C136.85 977.264 136.789 976.553 136.754 976.159C136.789 976.555 136.85 977.264 136.935 978.253Z" fill="#CCCCCC"/>
<path d="M227.463 1108.09H209.901C211.086 1092.96 213.429 1063.14 215.509 1036.64C217.679 1008.98 195.815 985.337 168.067 985.337H137.546C137.541 985.275 137.535 985.217 137.53 985.156C137.277 982.213 137.073 979.863 136.934 978.253C136.849 977.264 136.787 976.555 136.754 976.157L237.817 976.159C237.65 978.296 236.653 991.023 235.335 1007.81C232.45 1044.57 228.034 1100.8 227.462 1108.09" fill="#AE3747"/>
<path d="M235.84 976.163H138.736C132.22 976.163 126.938 971.879 126.938 966.592C126.938 961.308 132.22 957.024 138.736 957.024H235.84C242.356 957.024 247.637 961.308 247.637 966.592C247.637 971.879 242.356 976.163 235.84 976.163Z" fill="#D94559"/>
</svg>
